<svg width="108" height="23" viewBox="-1 -1 108 23" fill="none" xmlns="http://www.w3.org/2000/svg" id="svg-1992469619_5752">
<path d="M0.765625 20.0834V16.8934H3.29563V4.02336H0.765625V0.833364H10.6656C11.839 0.833364 12.8565 1.03503 13.7181 1.43836C14.5981 1.82337 15.2765 2.38253 15.7531 3.11586C16.2481 3.83087 16.4956 4.69253 16.4956 5.70087V5.97587C16.4956 6.85587 16.3306 7.58003 16.0006 8.14837C15.6706 8.69837 15.2765 9.1292 14.8181 9.44087C14.3781 9.7342 13.9565 9.94503 13.5531 10.0734V10.5684C13.9565 10.6784 14.3965 10.8892 14.8731 11.2009C15.3498 11.4942 15.7531 11.925 16.0831 12.4934C16.4315 13.0617 16.6056 13.8042 16.6056 14.7209V14.9959C16.6056 16.0592 16.3581 16.9759 15.8631 17.7459C15.3681 18.4975 14.6806 19.075 13.8006 19.4784C12.939 19.8817 11.9306 20.0834 10.7756 20.0834H0.765625ZM6.92563 16.7834H10.3356C11.124 16.7834 11.7565 16.5909 12.2331 16.2059C12.7281 15.8209 12.9756 15.2709 12.9756 14.5559V14.2809C12.9756 13.5659 12.7373 13.0159 12.2606 12.6309C11.784 12.2459 11.1423 12.0534 10.3356 12.0534H6.92563V16.7834ZM6.92563 8.75337H10.2806C11.0323 8.75337 11.6465 8.56086 12.1231 8.17586C12.6181 7.79086 12.8656 7.2592 12.8656 6.58087V6.30586C12.8656 5.6092 12.6273 5.07753 12.1506 4.71087C11.674 4.32586 11.0506 4.13336 10.2806 4.13336H6.92563V8.75337Z" fill="#94A3B8"></path>
<path d="M24.8023 20.4684C23.4457 20.4684 22.2265 20.1934 21.1448 19.6434C20.0632 19.0934 19.2107 18.2959 18.5873 17.2509C17.964 16.2059 17.6523 14.95 17.6523 13.4834V13.0434C17.6523 11.5767 17.964 10.3209 18.5873 9.27587C19.2107 8.23087 20.0632 7.43337 21.1448 6.88337C22.2265 6.33336 23.4457 6.05836 24.8023 6.05836C26.159 6.05836 27.3782 6.33336 28.4598 6.88337C29.5415 7.43337 30.394 8.23087 31.0173 9.27587C31.6407 10.3209 31.9523 11.5767 31.9523 13.0434V13.4834C31.9523 14.95 31.6407 16.2059 31.0173 17.2509C30.394 18.2959 29.5415 19.0934 28.4598 19.6434C27.3782 20.1934 26.159 20.4684 24.8023 20.4684ZM24.8023 17.3884C25.8657 17.3884 26.7457 17.0492 27.4423 16.3709C28.139 15.6742 28.4873 14.6842 28.4873 13.4009V13.1259C28.4873 11.8425 28.139 10.8617 27.4423 10.1834C26.764 9.4867 25.884 9.13837 24.8023 9.13837C23.739 9.13837 22.859 9.4867 22.1623 10.1834C21.4657 10.8617 21.1173 11.8425 21.1173 13.1259V13.4009C21.1173 14.6842 21.4657 15.6742 22.1623 16.3709C22.859 17.0492 23.739 17.3884 24.8023 17.3884Z" fill="#94A3B8"></path>
<path d="M33.7757 20.0834V0.833364H37.2407V20.0834H33.7757Z" fill="#94A3B8"></path>
<path d="M44.9304 20.0834C44.0321 20.0834 43.2987 19.8084 42.7304 19.2584C42.1804 18.69 41.9054 17.9384 41.9054 17.0034V9.30337H38.4954V6.44336H41.9054V2.20836H45.3704V6.44336H49.1104V9.30337H45.3704V16.3984C45.3704 16.9484 45.6271 17.2234 46.1404 17.2234H48.7804V20.0834H44.9304Z" fill="#94A3B8"></path>
<path d="M56.5369 20.4684C54.7586 20.4684 53.3011 20.0834 52.1644 19.3134C51.0277 18.5434 50.3402 17.4434 50.1019 16.0134L53.2919 15.1884C53.4202 15.83 53.6311 16.3342 53.9244 16.7009C54.2361 17.0675 54.6119 17.3334 55.0519 17.4984C55.5102 17.645 56.0052 17.7184 56.5369 17.7184C57.3436 17.7184 57.9394 17.5809 58.3244 17.3059C58.7094 17.0125 58.9019 16.655 58.9019 16.2334C58.9019 15.8117 58.7186 15.4909 58.3519 15.2709C57.9852 15.0325 57.3986 14.84 56.5919 14.6934L55.8219 14.5559C54.8686 14.3725 53.9977 14.125 53.2094 13.8134C52.4211 13.4834 51.7886 13.0342 51.3119 12.4659C50.8352 11.8975 50.5969 11.1642 50.5969 10.2659C50.5969 8.9092 51.0919 7.87337 52.0819 7.15837C53.0719 6.42503 54.3736 6.05836 55.9869 6.05836C57.5086 6.05836 58.7736 6.39753 59.7819 7.07587C60.7903 7.7542 61.4503 8.64337 61.7619 9.74337L58.5444 10.7334C58.3977 10.0367 58.0952 9.5417 57.6369 9.24836C57.1969 8.95503 56.6469 8.80837 55.9869 8.80837C55.3269 8.80837 54.8227 8.92753 54.4744 9.16586C54.1261 9.38586 53.9519 9.69753 53.9519 10.1009C53.9519 10.5409 54.1352 10.8709 54.5019 11.0909C54.8686 11.2925 55.3636 11.4484 55.9869 11.5584L56.7569 11.6959C57.7836 11.8792 58.7094 12.1267 59.5344 12.4384C60.3778 12.7317 61.0378 13.1625 61.5144 13.7309C62.0094 14.2809 62.2569 15.0325 62.2569 15.9859C62.2569 17.4159 61.7344 18.525 60.6894 19.3134C59.6627 20.0834 58.2786 20.4684 56.5369 20.4684Z" fill="#94A3B8"></path>
<path d="M63.9183 20.0834V0.833364H67.3833V8.12087H67.8783C68.025 7.82753 68.2541 7.5342 68.5658 7.24087C68.8775 6.94753 69.29 6.7092 69.8033 6.52586C70.335 6.3242 71.0041 6.22337 71.8108 6.22337C72.8741 6.22337 73.8 6.47087 74.5883 6.96587C75.395 7.44253 76.0183 8.1117 76.4583 8.97337C76.8983 9.8167 77.1183 10.8067 77.1183 11.9434V20.0834H73.6533V12.2184C73.6533 11.1917 73.3966 10.4217 72.8833 9.90837C72.3883 9.39503 71.6733 9.13837 70.7383 9.13837C69.675 9.13837 68.85 9.49587 68.2633 10.2109C67.6766 10.9075 67.3833 11.8884 67.3833 13.1534V20.0834H63.9183Z" fill="#94A3B8"></path>
<path d="M79.4891 20.0834V6.44336H82.9541V20.0834H79.4891ZM81.2216 4.84836C80.5983 4.84836 80.0666 4.6467 79.6266 4.24336C79.2049 3.84003 78.9941 3.30836 78.9941 2.64837C78.9941 1.98837 79.2049 1.4567 79.6266 1.05336C80.0666 0.650031 80.5983 0.448364 81.2216 0.448364C81.8633 0.448364 82.3949 0.650031 82.8166 1.05336C83.2383 1.4567 83.4491 1.98837 83.4491 2.64837C83.4491 3.30836 83.2383 3.84003 82.8166 4.24336C82.3949 4.6467 81.8633 4.84836 81.2216 4.84836Z" fill="#94A3B8"></path>
<path d="M87.6738 20.0834V9.30337H84.2088V6.44336H87.6738V3.91337C87.6738 2.97836 87.9488 2.23586 88.4988 1.68587C89.0671 1.11753 89.8005 0.833364 90.6988 0.833364H94.2738V3.69337H91.9088C91.3955 3.69337 91.1388 3.96836 91.1388 4.51836V6.44336H94.7138V9.30337H91.1388V20.0834H87.6738Z" fill="#94A3B8"></path>
<path d="M100.978 20.0834C100.079 20.0834 99.3461 19.8084 98.7778 19.2584C98.2278 18.69 97.9528 17.9384 97.9528 17.0034V9.30337H94.5428V6.44336H97.9528V2.20836H101.418V6.44336H105.158V9.30337H101.418V16.3984C101.418 16.9484 101.674 17.2234 102.188 17.2234H104.828V20.0834H100.978Z" fill="#94A3B8"></path>
</svg>