<svg width="41" height="42" viewBox="0 0 41 42" fill="none" xmlns="http://www.w3.org/2000/svg" id="svg253465026_651">
<path fill-rule="evenodd" clip-rule="evenodd" d="M20.1667 41.1667C31.3044 41.1667 40.3333 32.1378 40.3333 21C40.3333 9.86231 31.3044 0.833374 20.1667 0.833374C9.0289 0.833374 0 9.86231 0 21C0 32.1378 9.0289 41.1667 20.1667 41.1667ZM26.458 10.2279C26.7642 9.14008 25.7086 8.49684 24.7445 9.18369L11.2864 18.7712C10.2408 19.5161 10.4053 21 11.5334 21H15.0773V20.9726H21.9842L16.3564 22.9583L13.8754 31.7723C13.5692 32.8601 14.6247 33.5033 15.5888 32.8164L29.047 23.2289C30.0925 22.4841 29.9279 21 28.7999 21H23.4257L26.458 10.2279Z" fill="#94A3B8"></path>
</svg>