<svg width="16" height="16" viewBox="0 0 16 16" fill="none" xmlns="http://www.w3.org/2000/svg" id="svg1329006563_699">
<path fill-rule="evenodd" clip-rule="evenodd" d="M8.0013 0.666656C3.95121 0.666656 0.667969 3.9499 0.667969 7.99999C0.667969 12.0501 3.95121 15.3333 8.0013 15.3333C12.0514 15.3333 15.3346 12.0501 15.3346 7.99999C15.3346 3.9499 12.0514 0.666656 8.0013 0.666656ZM11.4727 6.47139C11.7331 6.21104 11.7331 5.78893 11.4727 5.52859C11.2124 5.26824 10.7902 5.26824 10.5299 5.52859L7.0013 9.05718L5.47271 7.52859C5.21236 7.26824 4.79025 7.26824 4.5299 7.52859C4.26955 7.78893 4.26955 8.21104 4.5299 8.47139L6.5299 10.4714C6.79025 10.7317 7.21236 10.7317 7.47271 10.4714L11.4727 6.47139Z" fill="#10B981"></path>
</svg>