<svg width="22" height="22" viewBox="-1 -1 22 22" fill="none" xmlns="http://www.w3.org/2000/svg" id="svg1532469837_916">
<path d="M7 1.5V0M3.06066 3.06066L2 2M3.06066 11L2 12.0607M11 3.06066L12.0607 2M1.5 7H0M13.8645 14.1896L11.3727 18.817C11.0881 19.3457 10.9457 19.61 10.7745 19.6769C10.6259 19.7349 10.4585 19.7185 10.324 19.6328C10.1689 19.534 10.0806 19.2471 9.90381 18.6733L6.44519 7.44525C6.3008 6.97651 6.2286 6.74213 6.28669 6.58383C6.33729 6.44595 6.44595 6.33729 6.58383 6.2867C6.74213 6.22861 6.9765 6.3008 7.44525 6.44519L18.6732 9.90385C19.247 10.0806 19.5339 10.169 19.6327 10.324C19.7185 10.4586 19.7348 10.6259 19.6768 10.7745C19.61 10.9458 19.3456 11.0881 18.817 11.3728L14.1896 13.8645C14.111 13.9068 14.0717 13.9279 14.0374 13.9551C14.0068 13.9792 13.9792 14.0068 13.9551 14.0374C13.9279 14.0717 13.9068 14.111 13.8645 14.1896Z" stroke="#266DF0" stroke-width="2" stroke-linecap="round" stroke-linejoin="round"></path>
</svg>