<svg width="22" height="20" viewBox="-1 -1 22 20" fill="none" xmlns="http://www.w3.org/2000/svg" id="svg-1066470100_810">
<path d="M20 6H0M2.137e-07 4.8L7.7709e-08 13.2C5.05083e-08 14.8802 5.96046e-08 15.7202 0.32698 16.362C0.614601 16.9265 1.07354 17.3854 1.63803 17.673C2.27976 18 3.11984 18 4.8 18H15.2C16.8802 18 17.7202 18 18.362 17.673C18.9265 17.3854 19.3854 16.9265 19.673 16.362C20 15.7202 20 14.8802 20 13.2V4.8C20 3.11984 20 2.27977 19.673 1.63803C19.3854 1.07354 18.9265 0.614602 18.362 0.326982C17.7202 1.51992e-06 16.8802 1.42602e-06 15.2 1.22772e-06L4.8 3.07409e-10C3.11984 -1.97986e-07 2.27976 -2.98023e-07 1.63803 0.32698C1.07354 0.6146 0.614601 1.07354 0.326981 1.63803C2.68221e-07 2.27976 2.40901e-07 3.11984 2.137e-07 4.8Z" stroke="#266DF0" stroke-width="2" stroke-linecap="round" stroke-linejoin="round"></path>
</svg>