<svg width="16" height="14" viewBox="-1 -1 16 14" fill="none" xmlns="http://www.w3.org/2000/svg" id="svg1757108247_1032">
<path d="M0.332031 2.66675L5.77531 6.47704C6.21609 6.78559 6.43648 6.93986 6.67621 6.99962C6.88796 7.0524 7.10943 7.0524 7.32119 6.99962C7.56091 6.93986 7.7813 6.78559 8.22208 6.47704L13.6654 2.66675M3.53203 11.3334H10.4654C11.5855 11.3334 12.1455 11.3334 12.5733 11.1154C12.9497 10.9237 13.2556 10.6177 13.4474 10.2414C13.6654 9.81357 13.6654 9.25352 13.6654 8.13341V3.86675C13.6654 2.74664 13.6654 2.18659 13.4474 1.75877C13.2556 1.38244 12.9497 1.07648 12.5733 0.884735C12.1455 0.666748 11.5855 0.666748 10.4654 0.666748H3.53203C2.41193 0.666748 1.85187 0.666748 1.42405 0.884735C1.04773 1.07648 0.741765 1.38244 0.550018 1.75877C0.332031 2.18659 0.332031 2.74664 0.332031 3.86675V8.13341C0.332031 9.25352 0.332031 9.81357 0.550018 10.2414C0.741765 10.6177 1.04773 10.9237 1.42405 11.1154C1.85187 11.3334 2.41193 11.3334 3.53203 11.3334Z" stroke="#6B7280" stroke-width="1.5" stroke-linecap="round" stroke-linejoin="round"></path>
</svg>