<svg width="41" height="42" viewBox="0 0 41 42" fill="none" xmlns="http://www.w3.org/2000/svg" id="svg-1010354305_2401">
<path opacity="0.8" d="M33.7291 9.23284C33.3329 8.83664 32.9367 8.44044 32.5405 8.04424C31.3519 6.77639 30.0841 5.50855 28.4993 4.71614C26.6767 3.76526 24.6957 4.00297 22.7147 4.00297C19.7036 4.00297 12.1757 4.00297 7.73828 4.00297L10.7494 8.04424C16.217 8.04424 24.775 8.04424 28.737 8.04424C30.401 8.04424 31.8274 8.3612 33.1744 9.23284C33.4122 9.31208 33.6499 9.31208 33.7291 9.23284Z" fill="#94A3B8"></path>
<path opacity="0.9" d="M37.0573 15.7308C36.6611 15.3346 36.2649 14.9384 35.8686 14.5422C34.68 13.2743 33.4122 12.0065 31.8274 11.2141C30.0049 10.2632 28.0239 10.5009 26.0429 10.5009C23.4279 10.5009 17.1679 10.5009 12.7305 10.5009L15.7416 14.5422C21.1299 14.5422 28.4993 14.5422 32.1444 14.5422C33.8084 14.5422 35.2347 14.8591 36.5818 15.7308C36.7403 15.81 36.8988 15.81 37.0573 15.7308Z" fill="#94A3B8"></path>
<path d="M40.7838 22.0698C40.3876 21.6736 39.9914 21.2774 39.5952 20.8812C38.4066 19.6133 37.1388 18.3455 35.554 17.553C33.7314 16.6022 31.7504 16.8399 29.7694 16.8399C27.313 16.8399 21.9246 16.8399 17.5664 16.8399L20.5775 20.8812C25.8074 20.8812 32.4636 20.8812 35.7917 20.8812C37.4557 20.8812 38.8821 21.1981 40.2291 22.0698C40.4669 22.149 40.6253 22.2282 40.7838 22.0698Z" fill="#94A3B8"></path>
<path opacity="0.8" d="M7.42188 32.7671C7.81808 33.1633 8.21428 33.5595 8.61048 33.9557C9.79909 35.2235 11.0669 36.4914 12.6517 37.2838C14.4743 38.2346 16.4553 37.9969 18.4363 37.9969H33.4127L30.4016 33.9557C24.934 33.9557 16.376 33.9557 12.414 33.9557C10.75 33.9557 9.32364 33.6387 7.97656 32.7671C7.73883 32.6878 7.58036 32.6878 7.42188 32.7671Z" fill="#94A3B8"></path>
<path opacity="0.9" d="M4.09375 26.2696C4.48995 26.6658 4.88615 27.062 5.28236 27.4582C6.47096 28.7261 7.7388 29.9939 9.32361 30.7863C11.1461 31.7372 13.1271 31.4995 15.1082 31.4995H28.4205L25.4094 27.4582C20.0211 27.4582 12.6517 27.4582 9.00665 27.4582C7.3426 27.4582 5.91627 27.1413 4.56918 26.2696C4.4107 26.1904 4.25223 26.1904 4.09375 26.2696Z" fill="#94A3B8"></path>
<path d="M0.449219 19.8509C0.845421 20.2471 1.24162 20.6433 1.63782 21.0395C2.82643 22.3074 4.09428 23.5752 5.67909 24.3676C7.50161 25.3185 9.48261 25.0808 11.4636 25.0808H23.6666L20.6555 21.0395C15.4256 21.0395 8.76946 21.0395 5.44136 21.0395C3.77732 21.0395 2.35098 20.7226 1.0039 19.8509C0.766178 19.7717 0.607699 19.7717 0.449219 19.8509Z" fill="#94A3B8"></path>
</svg>