<svg width="135" height="22" viewBox="-1 -1 135 22" fill="none" xmlns="http://www.w3.org/2000/svg" id="svg1849857579_9044">
<path d="M0.886719 0.840698V19.1667H4.91639V11.595H12.5907V8.4637H4.91639V4.2287H13.7714V0.840698H0.886719Z" fill="#94A3B8"></path>
<path d="M23.8782 11.1074H17.9492C17.9663 10.8507 18.0177 10.5598 18.1032 10.2347C18.2059 9.90959 18.3685 9.60159 18.5909 9.3107C18.8305 9.01981 19.1385 8.78025 19.5149 8.59203C19.9085 8.3867 20.3961 8.28403 20.9779 8.28403C21.8677 8.28403 22.5265 8.52359 22.9542 9.0027C23.3991 9.48181 23.7071 10.1834 23.8782 11.1074ZM17.9492 13.4174H27.5229C27.5913 12.3907 27.5058 11.4068 27.2662 10.4657C27.0267 9.52459 26.6331 8.68614 26.0856 7.95037C25.5551 7.21459 24.8707 6.63281 24.0322 6.20503C23.1938 5.76014 22.2099 5.5377 21.0806 5.5377C20.071 5.5377 19.147 5.71737 18.3086 6.0767C17.4872 6.43603 16.7771 6.93226 16.1782 7.56537C15.5793 8.18137 15.1173 8.91714 14.7922 9.7727C14.4671 10.6283 14.3046 11.5523 14.3046 12.5447C14.3046 13.5714 14.4586 14.5125 14.7666 15.368C15.0917 16.2236 15.5451 16.9594 16.1269 17.5754C16.7087 18.1914 17.4188 18.6705 18.2572 19.0127C19.0957 19.3378 20.0368 19.5004 21.0806 19.5004C22.5863 19.5004 23.8697 19.1581 24.9306 18.4737C25.9915 17.7893 26.7786 16.6514 27.2919 15.06H24.0836C23.9638 15.4707 23.6387 15.8643 23.1082 16.2407C22.5778 16.6 21.9447 16.7797 21.2089 16.7797C20.1822 16.7797 19.3951 16.5145 18.8476 15.984C18.3 15.4536 18.0006 14.598 17.9492 13.4174Z" fill="#94A3B8"></path>
<path d="M28.7605 9.97803C28.8119 9.12248 29.0257 8.41237 29.4022 7.8477C29.7786 7.28303 30.2577 6.82959 30.8395 6.48737C31.4213 6.14514 32.0715 5.90559 32.7902 5.7687C33.526 5.6147 34.2617 5.5377 34.9975 5.5377C35.6648 5.5377 36.3407 5.58903 37.0252 5.6917C37.7096 5.77725 38.3342 5.95692 38.8988 6.2307C39.4635 6.50448 39.9255 6.88948 40.2849 7.3857C40.6442 7.86481 40.8239 8.50648 40.8239 9.3107V16.215C40.8239 16.8139 40.8581 17.3871 40.9265 17.9347C40.995 18.4823 41.1147 18.8929 41.2858 19.1667H37.5899C37.5214 18.9614 37.4615 18.756 37.4102 18.5507C37.376 18.3283 37.3503 18.1058 37.3332 17.8834C36.7514 18.4823 36.067 18.9015 35.2799 19.141C34.4927 19.3806 33.6885 19.5004 32.8672 19.5004C32.2341 19.5004 31.6437 19.4234 31.0962 19.2694C30.5486 19.1154 30.0695 18.8758 29.6589 18.5507C29.2482 18.2256 28.9231 17.8149 28.6835 17.3187C28.4611 16.8225 28.3499 16.2321 28.3499 15.5477C28.3499 14.7948 28.4782 14.1788 28.7349 13.6997C29.0086 13.2035 29.3509 12.8099 29.7615 12.519C30.1893 12.2281 30.6684 12.0143 31.1989 11.8774C31.7464 11.7234 32.294 11.6036 32.8415 11.518C33.3891 11.4325 33.9281 11.364 34.4585 11.3127C34.989 11.2614 35.4595 11.1844 35.8702 11.0817C36.2809 10.979 36.606 10.8336 36.8455 10.6454C37.0851 10.44 37.1963 10.1491 37.1792 9.7727C37.1792 9.37914 37.1107 9.07114 36.9739 8.8487C36.8541 8.60914 36.683 8.42948 36.4605 8.3097C36.2552 8.17281 36.0071 8.08725 35.7162 8.05303C35.4424 8.0017 35.143 7.97603 34.8179 7.97603C34.0992 7.97603 33.5345 8.13003 33.1239 8.43803C32.7132 8.74603 32.4736 9.25937 32.4052 9.97803H28.7605ZM37.1792 12.673C37.0252 12.8099 36.8284 12.9211 36.5888 13.0067C36.3664 13.0751 36.1183 13.135 35.8445 13.1864C35.5878 13.2377 35.3141 13.2805 35.0232 13.3147C34.7323 13.3489 34.4414 13.3917 34.1505 13.443C33.8767 13.4944 33.603 13.5628 33.3292 13.6484C33.0725 13.7339 32.8415 13.8537 32.6362 14.0077C32.448 14.1446 32.294 14.3243 32.1742 14.5467C32.0544 14.7691 31.9945 15.0515 31.9945 15.3937C31.9945 15.7188 32.0544 15.9926 32.1742 16.215C32.294 16.4375 32.4565 16.6171 32.6618 16.754C32.8672 16.8738 33.1067 16.9594 33.3805 17.0107C33.6543 17.062 33.9366 17.0877 34.2275 17.0877C34.9462 17.0877 35.5023 16.9679 35.8958 16.7284C36.2894 16.4888 36.5803 16.2065 36.7685 15.8814C36.9567 15.5391 37.068 15.1969 37.1022 14.8547C37.1535 14.5125 37.1792 14.2387 37.1792 14.0334V12.673Z" fill="#94A3B8"></path>
<path d="M47.5028 5.89703V1.9187H43.8581V5.89703H41.6508V8.33537H43.8581V16.1637C43.8581 16.831 43.9694 17.37 44.1918 17.7807C44.4142 18.1914 44.7137 18.5079 45.0901 18.7304C45.4837 18.9528 45.9286 19.0983 46.4248 19.1667C46.9381 19.2523 47.4771 19.295 48.0418 19.295C48.4011 19.295 48.769 19.2865 49.1455 19.2694C49.5219 19.2523 49.8641 19.218 50.1721 19.1667V16.3434C50.001 16.3776 49.8214 16.4033 49.6331 16.4204C49.4449 16.4375 49.2481 16.446 49.0428 16.446C48.4268 16.446 48.0161 16.3434 47.8108 16.138C47.6055 15.9327 47.5028 15.522 47.5028 14.906V8.33537H50.1721V5.89703H47.5028Z" fill="#94A3B8"></path>
<path d="M51.1362 0.840698V19.1667H54.7809V12.211C54.7809 10.8593 55.0033 9.89248 55.4482 9.3107C55.8931 8.71181 56.6118 8.41237 57.6042 8.41237C58.4769 8.41237 59.0843 8.68614 59.4266 9.2337C59.7688 9.76414 59.9399 10.5769 59.9399 11.672V19.1667H63.5846V11.0047C63.5846 10.1834 63.5076 9.43903 63.3536 8.7717C63.2167 8.08725 62.9686 7.51403 62.6092 7.05203C62.2499 6.57292 61.7537 6.20503 61.1206 5.94837C60.5046 5.67459 59.7089 5.5377 58.7336 5.5377C58.0491 5.5377 57.3476 5.71737 56.6289 6.0767C55.9102 6.41892 55.3199 6.97503 54.8579 7.74503H54.7809V0.840698H51.1362Z" fill="#94A3B8"></path>
<path d="M74.5128 11.1074H68.5838C68.6009 10.8507 68.6522 10.5598 68.7378 10.2347C68.8404 9.90959 69.003 9.60159 69.2254 9.3107C69.465 9.01981 69.773 8.78025 70.1494 8.59203C70.543 8.3867 71.0306 8.28403 71.6124 8.28403C72.5022 8.28403 73.161 8.52359 73.5888 9.0027C74.0336 9.48181 74.3416 10.1834 74.5128 11.1074ZM68.5838 13.4174H78.1574C78.2259 12.3907 78.1403 11.4068 77.9008 10.4657C77.6612 9.52459 77.2676 8.68614 76.7201 7.95037C76.1896 7.21459 75.5052 6.63281 74.6668 6.20503C73.8283 5.76014 72.8444 5.5377 71.7151 5.5377C70.7055 5.5377 69.7815 5.71737 68.9431 6.0767C68.1218 6.43603 67.4116 6.93226 66.8128 7.56537C66.2139 8.18137 65.7519 8.91714 65.4268 9.7727C65.1016 10.6283 64.9391 11.5523 64.9391 12.5447C64.9391 13.5714 65.0931 14.5125 65.4011 15.368C65.7262 16.2236 66.1796 16.9594 66.7614 17.5754C67.3432 18.1914 68.0533 18.6705 68.8918 19.0127C69.7302 19.3378 70.6713 19.5004 71.7151 19.5004C73.2209 19.5004 74.5042 19.1581 75.5651 18.4737C76.626 17.7893 77.4131 16.6514 77.9264 15.06H74.7181C74.5983 15.4707 74.2732 15.8643 73.7428 16.2407C73.2123 16.6 72.5792 16.7797 71.8434 16.7797C70.8168 16.7797 70.0296 16.5145 69.4821 15.984C68.9345 15.4536 68.6351 14.598 68.5838 13.4174Z" fill="#94A3B8"></path>
<path d="M79.549 5.89703V19.1667H83.1937V13.1864C83.1937 12.5875 83.2536 12.0314 83.3734 11.518C83.4931 11.0047 83.6899 10.5598 83.9637 10.1834C84.2546 9.78981 84.631 9.48181 85.093 9.25937C85.555 9.03692 86.1197 8.9257 86.787 8.9257C87.0095 8.9257 87.2405 8.94281 87.48 8.97703C87.7196 8.99414 87.9249 9.01981 88.096 9.05403V5.66603C87.8051 5.58048 87.5399 5.5377 87.3004 5.5377C86.8384 5.5377 86.3935 5.60614 85.9657 5.74303C85.5379 5.87992 85.1358 6.0767 84.7594 6.33337C84.3829 6.57292 84.0493 6.87237 83.7584 7.2317C83.4675 7.57392 83.2365 7.95037 83.0654 8.36103H83.014V5.89703H79.549Z" fill="#94A3B8"></path>
<path d="M93.1696 15.7787V4.2287H96.0443C97.0367 4.2287 97.8666 4.37414 98.5339 4.66503C99.2184 4.93881 99.7659 5.34092 100.177 5.87137C100.587 6.40181 100.878 7.04348 101.049 7.79637C101.238 8.53214 101.332 9.36203 101.332 10.286C101.332 11.2956 101.203 12.1511 100.947 12.8527C100.69 13.5543 100.348 14.1275 99.9199 14.5724C99.4922 15.0001 99.0045 15.3081 98.4569 15.4964C97.9094 15.6846 97.3447 15.7787 96.7629 15.7787H93.1696ZM89.1399 0.840698V19.1667H97.0453C98.4484 19.1667 99.6633 18.9357 100.69 18.4737C101.734 17.9946 102.598 17.3444 103.282 16.523C103.984 15.7017 104.506 14.7264 104.848 13.597C105.19 12.4677 105.361 11.2357 105.361 9.90103C105.361 8.37814 105.147 7.05203 104.72 5.9227C104.309 4.79337 103.727 3.85225 102.974 3.09937C102.239 2.34648 101.357 1.78181 100.331 1.40537C99.3211 1.02892 98.2259 0.840698 97.0453 0.840698H89.1399Z" fill="#94A3B8"></path>
<path d="M115.941 11.1074H110.012C110.029 10.8507 110.081 10.5598 110.166 10.2347C110.269 9.90959 110.432 9.60159 110.654 9.3107C110.894 9.01981 111.202 8.78025 111.578 8.59203C111.972 8.3867 112.459 8.28403 113.041 8.28403C113.931 8.28403 114.59 8.52359 115.017 9.0027C115.462 9.48181 115.77 10.1834 115.941 11.1074ZM110.012 13.4174H119.586C119.654 12.3907 119.569 11.4068 119.329 10.4657C119.09 9.52459 118.696 8.68614 118.149 7.95037C117.618 7.21459 116.934 6.63281 116.095 6.20503C115.257 5.76014 114.273 5.5377 113.144 5.5377C112.134 5.5377 111.21 5.71737 110.372 6.0767C109.55 6.43603 108.84 6.93226 108.241 7.56537C107.642 8.18137 107.18 8.91714 106.855 9.7727C106.53 10.6283 106.368 11.5523 106.368 12.5447C106.368 13.5714 106.522 14.5125 106.83 15.368C107.155 16.2236 107.608 16.9594 108.19 17.5754C108.772 18.1914 109.482 18.6705 110.32 19.0127C111.159 19.3378 112.1 19.5004 113.144 19.5004C114.649 19.5004 115.933 19.1581 116.994 18.4737C118.055 17.7893 118.842 16.6514 119.355 15.06H116.147C116.027 15.4707 115.702 15.8643 115.171 16.2407C114.641 16.6 114.008 16.7797 113.272 16.7797C112.245 16.7797 111.458 16.5145 110.911 15.984C110.363 15.4536 110.064 14.598 110.012 13.4174Z" fill="#94A3B8"></path>
<path d="M128.318 19.1667L132.81 5.89703H129.191L126.393 14.9574H126.342L123.544 5.89703H119.72L124.263 19.1667H128.318Z" fill="#94A3B8"></path>
</svg>