<svg width="134" height="23" viewBox="-1 -1 134 23" fill="none" xmlns="http://www.w3.org/2000/svg" id="svg199343352_4069">
<path d="M9.49516 20.3867C11.9702 20.3867 14.0052 19.1217 14.6377 17.2242V20.1667H18.2952V12.7417C18.2952 11.0642 16.9752 9.63418 15.1877 9.63418H9.96266V12.7417H13.6752C14.1427 12.7417 14.4452 13.0442 14.4452 13.5117C14.4452 15.2992 12.0802 17.0317 9.68766 17.0317C6.49766 17.0317 3.96766 14.5292 3.96766 10.5417C3.96766 6.55418 6.49766 4.24418 9.77016 4.24418C12.2452 4.24418 13.9502 5.59168 14.2527 7.65418H18.3502C18.1027 3.52918 14.6377 0.696681 9.79766 0.696681C4.71016 0.696681 0.0351562 3.96918 0.0351562 10.5417C0.0351562 17.1142 4.57266 20.3867 9.49516 20.3867Z" fill="#94A3B8"></path>
<path d="M19.8652 20.1667H23.6877V0.28418H19.8652V20.1667Z" fill="#94A3B8"></path>
<path d="M31.9332 20.3867C36.1957 20.3867 39.2482 17.3617 39.2482 13.2367C39.2482 9.11168 36.1957 6.08668 31.9332 6.08668C27.6707 6.08668 24.6182 9.11168 24.6182 13.2367C24.6182 17.3617 27.6707 20.3867 31.9332 20.3867ZM31.9332 17.0867C29.8707 17.0867 28.4682 15.5192 28.4682 13.2367C28.4682 10.9267 29.8707 9.35918 31.9332 9.35918C33.9957 9.35918 35.3982 10.9267 35.3982 13.2367C35.3982 15.5192 33.9957 17.0867 31.9332 17.0867Z" fill="#94A3B8"></path>
<path d="M47.8016 20.3867C51.8991 20.3867 54.3466 17.5542 54.3466 13.2367C54.3466 8.91918 51.8991 6.08668 47.8566 6.08668C46.1241 6.08668 44.7766 6.74668 44.0066 7.76418V0.28418H40.1841V20.1667H44.0066V18.6542C44.7766 19.7267 46.2066 20.3867 47.8016 20.3867ZM47.1966 17.0867C45.1341 17.0867 43.7866 15.5467 43.7866 13.2367C43.7866 10.8992 45.1341 9.35918 47.1966 9.35918C49.2041 9.35918 50.5791 10.8992 50.5791 13.2367C50.5791 15.5467 49.2041 17.0867 47.1966 17.0867Z" fill="#94A3B8"></path>
<path d="M60.7453 6.08668C56.9503 6.08668 54.6953 8.31418 54.5303 11.0917H57.9403C57.9953 9.93668 58.8478 8.89168 60.5253 8.89168C62.0928 8.89168 63.0003 9.68918 63.0003 10.8442C63.0003 11.4217 62.6428 11.8617 61.9553 11.8617H59.6178C56.5928 11.8617 54.5578 13.5117 54.5578 16.2342C54.5578 18.5992 56.4003 20.3867 59.0953 20.3867C60.9928 20.3867 62.5328 19.5342 63.0003 18.2417V20.1667H66.7953V11.2567C66.7953 8.12168 64.2378 6.08668 60.7453 6.08668ZM60.0578 17.6092C58.9853 17.6092 58.2153 16.9767 58.2153 16.0692C58.2153 14.9967 59.0403 14.2817 60.1953 14.2817H63.0003V14.4742C63.0003 16.2342 61.9278 17.6092 60.0578 17.6092Z" fill="#94A3B8"></path>
<path d="M68.2642 20.1667H72.0867V0.28418H68.2642V20.1667Z" fill="#94A3B8"></path>
<path d="M74.1171 20.1667H81.9821C86.0521 20.1667 88.8571 18.0767 88.8571 14.4192C88.8571 11.8892 87.3721 10.3492 85.6121 9.66168C86.7396 9.05668 87.8671 7.68168 87.8671 5.86668C87.8671 2.64918 85.2546 0.91668 81.7621 0.91668H74.1171V20.1667ZM78.1871 8.25918V4.18918H81.3772C83.2197 4.18918 84.0446 4.93168 84.0446 6.22418C84.0446 7.51668 83.2196 8.25918 81.4596 8.25918H78.1871ZM78.1871 16.5917V11.7517H81.6246C83.9071 11.7517 84.9246 12.6317 84.9246 14.1992C84.9246 15.7667 83.9071 16.5917 81.6246 16.5917H78.1871Z" fill="#94A3B8"></path>
<path d="M95.507 6.08668C91.712 6.08668 89.457 8.31418 89.292 11.0917H92.702C92.757 9.93668 93.6095 8.89168 95.287 8.89168C96.8545 8.89168 97.762 9.68918 97.762 10.8442C97.762 11.4217 97.4045 11.8617 96.717 11.8617H94.3795C91.3545 11.8617 89.3195 13.5117 89.3195 16.2342C89.3195 18.5992 91.162 20.3867 93.857 20.3867C95.7545 20.3867 97.2945 19.5342 97.762 18.2417V20.1667H101.557V11.2567C101.557 8.12168 98.9995 6.08668 95.507 6.08668ZM94.8195 17.6092C93.747 17.6092 92.977 16.9767 92.977 16.0692C92.977 14.9967 93.802 14.2817 94.957 14.2817H97.762V14.4742C97.762 16.2342 96.6895 17.6092 94.8195 17.6092Z" fill="#94A3B8"></path>
<path d="M102.806 20.1667H106.656V12.5767C106.656 10.7892 107.838 9.49668 109.516 9.49668C111.111 9.49668 112.183 10.7067 112.183 12.3842V20.1667H116.033V11.5317C116.033 8.34168 113.998 6.08668 110.863 6.08668C108.966 6.08668 107.426 6.88418 106.656 8.23168V6.30668H102.806V20.1667Z" fill="#94A3B8"></path>
<path d="M127.006 20.1667H131.626L125.659 11.7517L131.186 6.30668H126.346L121.534 11.0367V0.28418H117.684V20.1667H121.534V15.8217L123.074 14.3092L127.006 20.1667Z" fill="#94A3B8"></path>
</svg>