<svg width="20" height="20" viewBox="-1 -1 20 20" fill="none" xmlns="http://www.w3.org/2000/svg" id="svg-374945803_993">
<path d="M6 4H1.6C1.03995 4 0.759921 4 0.546009 4.10899C0.357847 4.20487 0.204867 4.35785 0.108993 4.54601C0 4.75992 0 5.03995 0 5.6V16.4C0 16.9601 0 17.2401 0.108994 17.454C0.204867 17.6422 0.357847 17.7951 0.54601 17.891C0.759921 18 1.03995 18 1.6 18H6M6 18H12M6 18L6 1.6C6 1.03995 6 0.759921 6.10899 0.54601C6.20487 0.357848 6.35785 0.204867 6.54601 0.108994C6.75992 1.3411e-07 7.03995 1.2241e-07 7.6 1.0201e-07L10.4 0C10.9601 -2.03833e-08 11.2401 -2.98023e-08 11.454 0.108993C11.6422 0.204867 11.7951 0.357847 11.891 0.546009C12 0.759921 12 1.03995 12 1.6V18M12 8H16.4C16.9601 8 17.2401 8 17.454 8.10899C17.6422 8.20487 17.7951 8.35785 17.891 8.54601C18 8.75992 18 9.03995 18 9.6V16.4C18 16.9601 18 17.2401 17.891 17.454C17.7951 17.6422 17.6422 17.7951 17.454 17.891C17.2401 18 16.9601 18 16.4 18H12" stroke="#266DF0" stroke-width="2" stroke-linecap="round" stroke-linejoin="round"></path>
</svg>