<svg width="16" height="22" viewBox="-1 -1 16 22" fill="none" xmlns="http://www.w3.org/2000/svg" id="svg236682448_821">
<path d="M7 15.5H7.01M3.2 20H10.8C11.9201 20 12.4802 20 12.908 19.782C13.2843 19.5903 13.5903 19.2843 13.782 18.908C14 18.4802 14 17.9201 14 16.8V3.2C14 2.07989 14 1.51984 13.782 1.09202C13.5903 0.715695 13.2843 0.409734 12.908 0.217987C12.4802 0 11.9201 0 10.8 0H3.2C2.0799 0 1.51984 0 1.09202 0.217987C0.715695 0.409734 0.409734 0.715695 0.217987 1.09202C0 1.51984 0 2.0799 0 3.2V16.8C0 17.9201 0 18.4802 0.217987 18.908C0.409734 19.2843 0.715695 19.5903 1.09202 19.782C1.51984 20 2.07989 20 3.2 20ZM7.5 15.5C7.5 15.7761 7.27614 16 7 16C6.72386 16 6.5 15.7761 6.5 15.5C6.5 15.2239 6.72386 15 7 15C7.27614 15 7.5 15.2239 7.5 15.5Z" stroke="#266DF0" stroke-width="2" stroke-linecap="round" stroke-linejoin="round"></path>
</svg>