<svg width="119" height="23" viewBox="-1 -1 119 23" fill="none" xmlns="http://www.w3.org/2000/svg" id="svg-594888051_3153">
<path d="M13.4422 0.833374V14.7759L4.50469 0.833374H0.929688V20.0834H4.50469V6.25088L13.4422 20.0834H17.0172V0.833374H13.4422Z" fill="#94A3B8"></path>
<path d="M18.6281 4.43588H22.3131V0.833374H18.6281V4.43588ZM18.6831 20.0834V6.33338H22.2581V20.0834H18.6831Z" fill="#94A3B8"></path>
<path d="M37.6398 13.2084C37.6398 8.45088 34.2573 6.19588 30.6823 6.16837C27.0798 6.14087 23.7523 8.45088 23.7523 13.2084C23.7523 17.9659 27.0798 20.2759 30.6823 20.2484C33.9548 20.2209 36.2098 18.7084 37.2548 16.2059L34.4773 15.0509C33.6248 16.7559 32.2773 17.3609 30.6823 17.3884C29.3073 17.4159 27.7398 16.7559 27.4098 14.3084H37.5573C37.6123 13.9509 37.6398 13.5934 37.6398 13.2084ZM30.6823 9.00087C32.0573 9.02837 33.4598 9.77088 33.8998 11.7509H27.4648C27.9323 9.74338 29.3348 8.97337 30.6823 9.00087Z" fill="#94A3B8"></path>
<path d="M45.9019 8.89088V6.16837H43.6469V2.48337L40.0719 3.58337V6.16837H37.8169V8.89088H40.0719V16.0134C40.0719 18.7084 40.2919 20.0834 44.4719 20.0834H45.4344V16.9484H44.4719C43.8119 16.9484 43.6469 16.8384 43.6469 16.0134V8.89088H45.9019Z" fill="#94A3B8"></path>
<path d="M51.2141 17.0859L58.8041 9.33087V6.33338H47.4191V9.33087H54.7891L47.1991 17.0859V20.0834H58.8866V17.0859H51.2141Z" fill="#94A3B8"></path>
<path d="M60.1683 16.2059L63.7708 15.6559C64.0183 17.0309 65.6408 17.5534 66.6308 17.5534C67.6483 17.5534 69.4083 17.3334 69.4083 15.6834C69.4083 12.4659 60.5808 16.4809 60.5808 10.3209C60.5808 6.36087 65.1733 6.14087 66.6308 6.14087C68.0058 6.14087 71.9933 6.36087 72.8183 9.55087L69.4083 10.2659C69.1058 8.80837 67.5658 8.53338 66.7408 8.53338C65.9158 8.53338 64.1558 8.72587 64.1558 10.3209C64.1558 13.5109 72.9833 9.44087 72.9833 15.6834C72.9833 19.8909 68.1433 20.2484 66.6308 20.2484C65.2558 20.2484 60.8833 19.8909 60.1683 16.2059Z" fill="#94A3B8"></path>
<path d="M77.6276 13.2084C77.6276 16.5634 79.4151 17.5809 81.2851 17.5534C82.9626 17.5259 84.1176 16.8384 84.8051 14.9134L87.7476 16.3434C86.6751 19.1484 84.0626 20.2209 81.2851 20.2484C77.6826 20.2759 74.0526 17.9659 74.0526 13.2084C74.0526 8.45088 77.6826 6.14087 81.2851 6.16837C84.0626 6.19588 86.6751 7.26838 87.7476 10.0734L84.8051 11.5034C84.1176 9.57837 82.9626 8.89087 81.2851 8.86337C79.4151 8.83587 77.6276 9.85338 77.6276 13.2084Z" fill="#94A3B8"></path>
<path d="M97.3449 6.11337C95.5024 6.11337 93.8249 7.07588 92.7524 9.13838V0.833374H89.1774V20.0834H92.7524V15.2159C92.7524 8.91838 95.3649 8.39588 96.3274 8.39588C97.8674 8.39588 98.0874 9.99087 98.0874 12.3284V20.0834H101.662V12.3284C101.662 9.41337 101.195 6.11337 97.3449 6.11337Z" fill="#94A3B8"></path>
<path d="M116.756 13.2084C116.756 8.45088 113.374 6.19588 109.799 6.16837C106.196 6.14087 102.869 8.45088 102.869 13.2084C102.869 17.9659 106.196 20.2759 109.799 20.2484C113.071 20.2209 115.326 18.7084 116.371 16.2059L113.594 15.0509C112.741 16.7559 111.394 17.3609 109.799 17.3884C108.424 17.4159 106.856 16.7559 106.526 14.3084H116.674C116.729 13.9509 116.756 13.5934 116.756 13.2084ZM109.799 9.00087C111.174 9.02837 112.576 9.77088 113.016 11.7509H106.581C107.049 9.74338 108.451 8.97337 109.799 9.00087Z" fill="#94A3B8"></path>
</svg>