<svg width="41" height="42" viewBox="0 0 41 42" fill="none" xmlns="http://www.w3.org/2000/svg" id="svg1070894174_1619">
<g clip-path="url(#svg1070894174_1619_clip0_3321_4468)">
<path d="M25.6298 2.77818L21.7608 1.74146L18.5003 13.9099L15.5566 2.92415L11.6875 3.96087L14.8679 15.8302L6.9462 7.9085L4.11383 10.7409L12.8029 19.4301L1.98203 16.5306L0.945312 20.3996L12.7685 23.5677C12.6331 22.9838 12.5615 22.3755 12.5615 21.7504C12.5615 17.3259 16.1482 13.7392 20.5727 13.7392C24.9972 13.7392 28.5839 17.3259 28.5839 21.7504C28.5839 22.3714 28.5132 22.976 28.3795 23.5564L39.1246 26.4356L40.1612 22.5665L28.291 19.3859L39.1127 16.4862L38.0759 12.6172L26.2062 15.7976L34.1279 7.87598L31.2955 5.0436L22.7269 13.6122L25.6298 2.77818Z" fill="#94A3B8"></path>
<path d="M28.3682 23.6015C28.0364 25.0039 27.3361 26.2638 26.3752 27.2732L34.1595 35.0576L36.9919 32.2253L28.3682 23.6015Z" fill="#94A3B8"></path>
<path d="M26.2966 27.3546C25.3241 28.3479 24.0951 29.0891 22.7169 29.4711L25.5495 40.0424L29.4185 39.0056L26.2966 27.3546Z" fill="#94A3B8"></path>
<path d="M22.5724 29.5098C21.9329 29.6742 21.2627 29.7615 20.572 29.7615C19.8321 29.7615 19.1155 29.6612 18.4353 29.4734L15.6001 40.0543L19.4692 41.091L22.5724 29.5098Z" fill="#94A3B8"></path>
<path d="M18.2985 29.4344C16.9413 29.0334 15.7341 28.2827 14.7815 27.2866L6.97799 35.0901L9.81036 37.9225L18.2985 29.4344Z" fill="#94A3B8"></path>
<path d="M14.7172 27.2176C13.7809 26.2152 13.0988 24.9721 12.7742 23.5913L1.99402 26.4799L3.03073 30.349L14.7172 27.2176Z" fill="#94A3B8"></path>
</g>
<defs>
<clipPath id="svg1070894174_1619_clip0_3321_4468">
<rect width="40.3333" height="40.3333" fill="white" transform="translate(0.632812 0.833374)"></rect>
</clipPath>
</defs>
</svg>