<svg width="284" height="152" fill="none" xmlns="http://www.w3.org/2000/svg" id="svg-551541853_16370"><rect width="284" height="72" rx="16" fill="#fff" fill-opacity=".5"></rect><rect x="4.5" y="4.5" width="275" height="63" rx="11.5" fill="#fff"></rect><rect x="12.5" y="12.5" width="47" height="47" rx="15.5" fill="#F9FAFB"></rect><rect x="16.5" y="16.5" width="39" height="39" rx="11.5" fill="#fff"></rect><g clip-path="url(#svg-551541853_16370_a)"><path d="M35.999 32v4l2.666 1.333m4-1.333a6.667 6.667 0 1 1-13.333 0 6.667 6.667 0 0 1 13.333 0Z" stroke="#266DF0" stroke-width="1.5" stroke-linecap="round" stroke-linejoin="round"></path></g><rect x="16.5" y="16.5" width="39" height="39" rx="11.5" stroke="#E5E7EB"></rect><rect x="12.5" y="12.5" width="47" height="47" rx="15.5" stroke="#F3F4F6"></rect><path d="M76.704 31.875v-1.511h9.006v1.511h-3.63V42h-1.75V31.875h-3.626ZM87.244 42v-8.727h1.699V42h-1.7Zm.858-10.074a1.08 1.08 0 0 1-.761-.295.96.96 0 0 1-.313-.716c0-.28.104-.52.313-.716.212-.2.465-.301.76-.301.296 0 .548.1.757.3a.941.941 0 0 1 .318.717.953.953 0 0 1-.318.716 1.06 1.06 0 0 1-.756.295ZM90.908 42v-8.727h1.631v1.42h.108c.182-.48.48-.856.892-1.125.413-.273.907-.409 1.483-.409.583 0 1.072.136 1.466.41.398.272.691.647.88 1.124h.091c.209-.466.54-.837.995-1.113.454-.28.996-.42 1.625-.42.791 0 1.437.247 1.937.743.504.497.756 1.245.756 2.245V42h-1.699v-5.693c0-.591-.161-1.02-.483-1.284a1.757 1.757 0 0 0-1.153-.398c-.553 0-.983.17-1.29.511-.307.337-.46.771-.46 1.301V42h-1.694v-5.801c0-.474-.147-.854-.443-1.142-.295-.288-.68-.432-1.153-.432-.322 0-.62.085-.892.256-.27.166-.487.4-.653.699a2.14 2.14 0 0 0-.245 1.04V42h-1.699Zm17.582.176c-.86 0-1.6-.184-2.221-.551a3.734 3.734 0 0 1-1.432-1.563c-.333-.674-.5-1.463-.5-2.369 0-.894.167-1.682.5-2.363a3.883 3.883 0 0 1 1.409-1.597c.606-.383 1.314-.574 2.125-.574.492 0 .97.081 1.432.244.462.163.877.419 1.244.767.368.349.657.802.869 1.358.213.553.319 1.226.319 2.017v.603h-6.938v-1.273h5.273c0-.447-.091-.843-.273-1.188a2.06 2.06 0 0 0-.767-.823c-.326-.201-.708-.301-1.148-.301-.477 0-.894.117-1.25.352a2.364 2.364 0 0 0-.818.909 2.629 2.629 0 0 0-.284 1.21v.994c0 .584.102 1.08.307 1.489.208.41.498.722.869.938.371.212.805.318 1.301.318a2.7 2.7 0 0 0 .881-.137 1.91 1.91 0 0 0 .688-.42 1.84 1.84 0 0 0 .443-.688l1.608.29c-.129.474-.36.888-.694 1.245a3.354 3.354 0 0 1-1.244.823c-.496.194-1.062.29-1.699.29Zm16.843-11.812h1.762v7.653c0 .814-.192 1.536-.574 2.165a4.016 4.016 0 0 1-1.614 1.477c-.693.356-1.506.534-2.437.534-.928 0-1.739-.178-2.432-.534a4.016 4.016 0 0 1-1.614-1.477c-.382-.629-.574-1.35-.574-2.165v-7.653h1.756v7.511c0 .526.115.994.347 1.403.234.41.566.732.994.966.428.231.935.347 1.523.347.591 0 1.1-.116 1.528-.347.432-.234.761-.556.989-.966.231-.409.346-.877.346-1.403v-7.511Zm10.398 5.04-1.54.272a1.842 1.842 0 0 0-.307-.562 1.515 1.515 0 0 0-.557-.438c-.235-.114-.528-.17-.881-.17-.481 0-.882.108-1.204.324-.322.212-.483.486-.483.823 0 .292.108.527.324.705.216.178.564.324 1.045.438l1.387.318c.803.185 1.401.471 1.795.858.394.386.591.888.591 1.505 0 .523-.151.989-.455 1.398-.299.405-.717.724-1.255.955-.534.23-1.154.346-1.858.346-.977 0-1.775-.208-2.392-.625-.618-.42-.996-1.017-1.137-1.79l1.642-.25c.103.428.313.752.631.972.318.216.733.324 1.244.324.557 0 1.002-.116 1.336-.347.333-.235.5-.52.5-.858a.893.893 0 0 0-.307-.687c-.201-.186-.51-.326-.926-.42l-1.478-.325c-.814-.185-1.416-.48-1.806-.886-.387-.405-.58-.919-.58-1.54a2.2 2.2 0 0 1 .432-1.352c.288-.386.686-.688 1.193-.903.508-.22 1.089-.33 1.744-.33.944 0 1.686.205 2.228.614.541.405.899.949 1.074 1.63Zm5.479 6.772c-.86 0-1.6-.184-2.221-.551a3.734 3.734 0 0 1-1.432-1.563c-.333-.674-.5-1.463-.5-2.369 0-.894.167-1.682.5-2.363a3.883 3.883 0 0 1 1.409-1.597c.606-.383 1.314-.574 2.125-.574.492 0 .97.081 1.432.244.462.163.877.419 1.244.767.368.349.657.802.869 1.358.213.553.319 1.226.319 2.017v.603h-6.938v-1.273h5.273c0-.447-.091-.843-.273-1.188a2.06 2.06 0 0 0-.767-.823c-.326-.201-.708-.301-1.148-.301-.477 0-.894.117-1.25.352a2.364 2.364 0 0 0-.818.909 2.629 2.629 0 0 0-.284 1.21v.994c0 .584.102 1.08.307 1.489.208.41.498.722.869.938.371.212.805.318 1.301.318a2.7 2.7 0 0 0 .881-.137 1.91 1.91 0 0 0 .688-.42 1.84 1.84 0 0 0 .443-.688l1.608.29c-.129.474-.36.888-.694 1.245a3.354 3.354 0 0 1-1.244.823c-.496.194-1.062.29-1.699.29Zm8.577-.006c-.705 0-1.334-.18-1.887-.54-.549-.363-.981-.88-1.295-1.55-.311-.675-.466-1.483-.466-2.427 0-.943.157-1.75.471-2.42.319-.67.754-1.184 1.307-1.54a3.399 3.399 0 0 1 1.881-.534c.542 0 .977.091 1.307.273.333.178.591.386.773.625.185.238.329.449.431.63h.103v-4.323h1.698V42h-1.659v-1.358h-.142c-.102.186-.25.398-.443.636a2.462 2.462 0 0 1-.784.625c-.333.178-.765.267-1.295.267Zm.375-1.448c.488 0 .901-.13 1.238-.387.341-.261.599-.623.773-1.085.178-.462.267-1 .267-1.614 0-.606-.087-1.136-.261-1.59-.175-.455-.43-.81-.767-1.063-.338-.254-.754-.38-1.25-.38-.512 0-.938.132-1.279.397-.341.265-.598.627-.773 1.085-.17.459-.255.976-.255 1.551 0 .584.087 1.108.261 1.574.174.466.432.835.773 1.108.345.27.769.404 1.273.404Z" fill="#111827"></path><path d="M225.204 35.374v2.16h-5.97v-2.16h5.97Zm6.685 7.805c-.954 0-1.804-.164-2.55-.492-.741-.333-1.327-.789-1.758-1.368-.426-.584-.645-1.257-.658-2.02h2.787c.017.32.121.6.313.844.196.238.456.424.78.556a2.87 2.87 0 0 0 1.093.198c.422 0 .795-.075 1.118-.224.324-.149.578-.355.761-.62.183-.264.275-.569.275-.914 0-.35-.098-.658-.294-.927-.192-.272-.469-.485-.831-.639-.358-.153-.784-.23-1.278-.23h-1.221V35.31h1.221a2.65 2.65 0 0 0 1.105-.217 1.79 1.79 0 0 0 .755-.6 1.56 1.56 0 0 0 .268-.909 1.575 1.575 0 0 0-.888-1.45 2.12 2.12 0 0 0-.972-.211 2.54 2.54 0 0 0-1.029.204c-.311.132-.56.322-.748.569a1.495 1.495 0 0 0-.3.87h-2.653c.013-.755.228-1.42.646-1.995.417-.575.98-1.025 1.687-1.349.712-.328 1.515-.492 2.41-.492.903 0 1.694.164 2.371.492.678.328 1.204.772 1.579 1.33.379.554.567 1.176.563 1.866.004.733-.224 1.345-.684 1.835-.456.49-1.051.801-1.784.933v.102c.963.124 1.696.458 2.199 1.004.507.541.759 1.219.754 2.033a3.193 3.193 0 0 1-.645 1.987c-.431.58-1.025 1.036-1.784 1.368-.758.333-1.627.499-2.608.499Zm6.667-.179v-1.994l4.66-4.315c.396-.384.728-.729.997-1.035.273-.307.479-.608.62-.902a2.23 2.23 0 0 0 .211-.965c0-.383-.088-.714-.262-.99a1.725 1.725 0 0 0-.716-.646 2.246 2.246 0 0 0-1.029-.23c-.401 0-.75.08-1.049.243a1.675 1.675 0 0 0-.69.696c-.162.303-.243.663-.243 1.08h-2.627c0-.856.194-1.6.582-2.23a3.885 3.885 0 0 1 1.63-1.464c.699-.345 1.504-.518 2.416-.518.937 0 1.753.166 2.448.499.699.328 1.242.784 1.63 1.368.388.583.582 1.252.582 2.007 0 .494-.098.982-.294 1.464-.192.481-.535 1.016-1.029 1.604-.495.584-1.191 1.285-2.091 2.103l-1.911 1.873v.09h5.497V43h-9.332Zm18.143-2.455v-.69c0-.524.111-1.006.333-1.444a2.64 2.64 0 0 1 .978-1.062c.43-.268.954-.402 1.572-.402.627 0 1.153.132 1.579.396.43.264.754.618.972 1.061.221.439.332.923.332 1.451v.69c0 .525-.111 1.008-.332 1.451-.222.44-.548.79-.978 1.055-.431.269-.955.403-1.573.403-.626 0-1.153-.134-1.579-.403a2.595 2.595 0 0 1-.971-1.055 3.193 3.193 0 0 1-.333-1.45Zm1.86-.69v.69c0 .303.073.588.218.857.149.268.417.403.805.403.388 0 .652-.132.793-.397.145-.264.217-.552.217-.863v-.69c0-.311-.068-.6-.204-.87-.137-.268-.405-.402-.806-.402-.383 0-.65.134-.799.403a1.763 1.763 0 0 0-.224.87Zm-8.578-6.801v-.69c0-.529.113-1.012.339-1.451a2.63 2.63 0 0 1 .978-1.061c.43-.265.95-.397 1.56-.397.63 0 1.159.132 1.585.397.426.264.75.617.971 1.06.222.44.333.923.333 1.452v.69c0 .528-.113 1.012-.339 1.451a2.58 2.58 0 0 1-.978 1.055c-.426.26-.95.39-1.572.39-.622 0-1.149-.133-1.579-.397a2.66 2.66 0 0 1-.972-1.054 3.215 3.215 0 0 1-.326-1.445Zm1.873-.69v.69c0 .311.073.599.217.863.15.264.412.396.787.396.392 0 .658-.132.799-.396.145-.264.217-.552.217-.863v-.69a1.89 1.89 0 0 0-.205-.87c-.136-.268-.406-.402-.811-.402-.38 0-.642.136-.787.409a1.82 1.82 0 0 0-.217.863ZM250.825 43l9-13.09h1.675l-9 13.09h-1.675Z" fill="#10B981"></path><rect x="4.5" y="4.5" width="275" height="63" rx="11.5" stroke="#fff"></rect><rect x=".5" y=".5" width="283" height="71" rx="15.5" stroke="#fff" stroke-opacity=".25"></rect><rect y="80" width="284" height="72" rx="16" fill="#fff" fill-opacity=".5"></rect><rect x="4.5" y="84.5" width="275" height="63" rx="11.5" fill="#fff"></rect><rect x="12.5" y="92.5" width="47" height="47" rx="15.5" fill="#F9FAFB"></rect><rect x="16.5" y="96.5" width="39" height="39" rx="11.5" fill="#fff"></rect><g clip-path="url(#svg-551541853_16370_b)"><path d="M31.332 116a4.667 4.667 0 0 1 4.667-4.667m3 1.667-3 3m6.666 0a6.667 6.667 0 1 1-13.333 0 6.667 6.667 0 0 1 13.333 0Zm-6 0a.667.667 0 1 1-1.334 0 .667.667 0 0 1 1.334 0Z" stroke="#266DF0" stroke-width="1.5" stroke-linecap="round" stroke-linejoin="round"></path></g><rect x="16.5" y="96.5" width="39" height="39" rx="11.5" stroke="#E5E7EB"></rect><rect x="12.5" y="92.5" width="47" height="47" rx="15.5" stroke="#F3F4F6"></rect><path d="M77.278 122v-11.636h4.148c.905 0 1.655.164 2.25.494.595.329 1.04.78 1.335 1.352.296.568.444 1.209.444 1.921 0 .716-.15 1.36-.45 1.931-.295.569-.742 1.019-1.34 1.353-.595.329-1.343.494-2.245.494h-2.852v-1.489h2.693c.572 0 1.036-.098 1.392-.295a1.85 1.85 0 0 0 .784-.818 2.67 2.67 0 0 0 .25-1.176c0-.44-.083-.83-.25-1.171a1.791 1.791 0 0 0-.79-.801c-.355-.193-.825-.29-1.408-.29h-2.205V122h-1.756Zm9.778 0v-8.727h1.642v1.386h.091c.16-.47.44-.839.841-1.108a2.404 2.404 0 0 1 1.375-.409c.106 0 .231.004.375.011.148.008.264.017.347.029v1.625a3.062 3.062 0 0 0-.364-.063 3.536 3.536 0 0 0-.522-.039c-.402 0-.76.085-1.074.255a1.904 1.904 0 0 0-1.012 1.71V122h-1.699Zm9.185.176c-.819 0-1.532-.187-2.142-.562a3.795 3.795 0 0 1-1.42-1.574c-.338-.674-.507-1.462-.507-2.364 0-.905.17-1.697.506-2.375a3.784 3.784 0 0 1 1.42-1.579c.61-.375 1.325-.563 2.143-.563.818 0 1.532.188 2.142.563.61.375 1.083.901 1.42 1.579.337.678.506 1.47.506 2.375 0 .902-.169 1.69-.506 2.364a3.794 3.794 0 0 1-1.42 1.574c-.61.375-1.324.562-2.142.562Zm.005-1.426c.53 0 .97-.14 1.319-.42a2.47 2.47 0 0 0 .772-1.12c.17-.466.256-.979.256-1.54 0-.556-.085-1.068-.256-1.534a2.5 2.5 0 0 0-.773-1.13c-.348-.284-.787-.426-1.318-.426-.534 0-.977.142-1.33.426a2.54 2.54 0 0 0-.778 1.13c-.166.466-.25.978-.25 1.534 0 .561.084 1.074.25 1.54.17.466.43.839.779 1.12.352.28.795.42 1.33.42Zm8.906 1.42c-.704 0-1.333-.179-1.886-.539-.549-.364-.981-.881-1.296-1.551-.31-.675-.466-1.483-.466-2.427 0-.943.158-1.75.472-2.42.318-.671.754-1.184 1.307-1.54a3.4 3.4 0 0 1 1.881-.534c.541 0 .977.091 1.306.273.334.178.591.386.773.625.186.238.33.449.432.631h.102v-4.324h1.699V122h-1.659v-1.358h-.142c-.102.186-.25.398-.443.636-.19.239-.451.447-.784.625-.334.178-.765.267-1.296.267Zm.375-1.448c.489 0 .902-.129 1.239-.387.341-.261.598-.623.773-1.085.178-.462.267-1 .267-1.614 0-.606-.087-1.136-.262-1.591-.174-.454-.43-.808-.767-1.062s-.754-.381-1.25-.381c-.511 0-.937.133-1.278.398-.341.265-.599.627-.773 1.085-.17.459-.256.976-.256 1.551 0 .584.088 1.108.262 1.574.174.466.432.835.772 1.108.345.269.769.404 1.273.404Zm11.582-2.341v-5.108h1.705V122h-1.671v-1.511h-.091c-.2.466-.522.854-.966 1.164-.439.307-.986.461-1.642.461-.56 0-1.056-.123-1.488-.37-.428-.25-.765-.619-1.012-1.108-.242-.488-.363-1.092-.363-1.812v-5.551h1.699v5.346c0 .595.164 1.068.494 1.421.33.352.758.528 1.284.528.318 0 .635-.079.949-.238.318-.16.581-.4.79-.722.212-.322.316-.731.312-1.227Zm7.344 3.795c-.845 0-1.572-.191-2.182-.574a3.798 3.798 0 0 1-1.398-1.596c-.326-.678-.489-1.455-.489-2.33 0-.886.167-1.668.5-2.346a3.837 3.837 0 0 1 1.409-1.597c.607-.383 1.321-.574 2.143-.574.662 0 1.253.123 1.772.369.519.243.938.584 1.256 1.023.322.44.513.953.574 1.54h-1.654a1.983 1.983 0 0 0-.625-1.057c-.322-.295-.753-.443-1.295-.443-.474 0-.888.125-1.244.375-.353.246-.627.598-.824 1.057-.197.454-.296.992-.296 1.613 0 .637.097 1.186.29 1.648.193.462.466.82.818 1.074.356.254.775.381 1.256.381.322 0 .614-.059.875-.177a1.78 1.78 0 0 0 .665-.517c.182-.223.308-.492.38-.806h1.654a3.225 3.225 0 0 1-.551 1.511 3.168 3.168 0 0 1-1.233 1.045c-.512.254-1.112.381-1.801.381Zm9.155-8.903v1.363h-4.767v-1.363h4.767Zm-3.488-2.091h1.699v8.256c0 .329.049.577.147.744a.776.776 0 0 0 .381.335c.159.057.331.085.517.085.136 0 .256-.009.358-.028.102-.019.182-.034.239-.046l.307 1.404a2.768 2.768 0 0 1-.421.113 3.314 3.314 0 0 1-.682.069 2.997 2.997 0 0 1-1.25-.239 2.14 2.14 0 0 1-.937-.773c-.239-.348-.358-.786-.358-1.312v-8.608ZM135.168 122v-8.727h1.699V122h-1.699Zm.858-10.074a1.08 1.08 0 0 1-.762-.295.963.963 0 0 1-.312-.716c0-.281.104-.519.312-.716.212-.201.466-.301.762-.301.295 0 .547.1.755.301a.94.94 0 0 1 .318.716.954.954 0 0 1-.318.716c-.208.197-.46.295-.755.295Zm10.272 1.347L143.133 122h-1.818l-3.17-8.727h1.823l2.211 6.716h.091l2.204-6.716h1.824Zm1.277 8.727v-8.727h1.698V122h-1.698Zm.858-10.074a1.08 1.08 0 0 1-.762-.295.963.963 0 0 1-.312-.716c0-.281.104-.519.312-.716.212-.201.466-.301.762-.301.295 0 .547.1.755.301a.94.94 0 0 1 .318.716.954.954 0 0 1-.318.716c-.208.197-.46.295-.755.295Zm6.88 1.347v1.363h-4.767v-1.363h4.767Zm-3.489-2.091h1.699v8.256c0 .329.049.577.148.744a.77.77 0 0 0 .38.335c.16.057.332.085.517.085.137 0 .256-.009.358-.028.103-.019.182-.034.239-.046l.307 1.404a2.768 2.768 0 0 1-.421.113 3.303 3.303 0 0 1-.681.069 2.994 2.994 0 0 1-1.25-.239 2.143 2.143 0 0 1-.938-.773c-.239-.348-.358-.786-.358-1.312v-8.608Zm6.122 14.091a3.51 3.51 0 0 1-.693-.063 2.142 2.142 0 0 1-.466-.125l.409-1.392c.311.084.587.12.829.108a.991.991 0 0 0 .643-.273c.189-.17.356-.448.5-.835l.21-.579-3.193-8.841h1.818l2.21 6.772h.091l2.21-6.772h1.824l-3.597 9.892a3.92 3.92 0 0 1-.636 1.153 2.474 2.474 0 0 1-.92.716 3.016 3.016 0 0 1-1.239.239Z" fill="#111827"></path><path d="M217.973 121.006v-9.051h2.288v9.051h-2.288Zm-3.381-3.382v-2.288h9.051v2.288h-9.051Zm11.145 3.075v-2.18l5.466-8.61h1.879v3.017h-1.112l-3.446 5.453v.102h7.767v2.218h-10.554Zm6.284 2.301v-2.966l.051-.965v-9.16h2.595V123h-2.646Zm10.637.179c-.984 0-1.86-.16-2.627-.479-.763-.324-1.361-.765-1.796-1.324a3.006 3.006 0 0 1-.652-1.898c0-.545.123-1.046.371-1.502a3.33 3.33 0 0 1 1.022-1.144 3.37 3.37 0 0 1 1.445-.588v-.09a2.836 2.836 0 0 1-1.7-1.016 2.922 2.922 0 0 1-.652-1.886c0-.677.198-1.28.594-1.809.396-.532.94-.95 1.63-1.253.695-.306 1.483-.46 2.365-.46.882 0 1.669.154 2.359.46.694.307 1.24.727 1.636 1.26.397.528.597 1.129.601 1.802a2.918 2.918 0 0 1-.665 1.886 2.858 2.858 0 0 1-1.687 1.016v.09a3.31 3.31 0 0 1 1.425.588c.431.302.772.684 1.023 1.144.256.456.386.957.39 1.502a3.036 3.036 0 0 1-.659 1.898c-.434.559-1.035 1-1.802 1.324-.763.319-1.636.479-2.621.479Zm0-2.033c.439 0 .823-.079 1.151-.236.328-.162.584-.384.767-.665.187-.285.281-.614.281-.984 0-.38-.096-.714-.288-1.004a1.969 1.969 0 0 0-.779-.69 2.418 2.418 0 0 0-1.132-.256c-.422 0-.799.085-1.131.256a1.956 1.956 0 0 0-.786.69c-.188.29-.282.624-.282 1.004 0 .37.092.699.275.984.183.281.441.503.774.665.332.157.716.236 1.15.236Zm0-5.848c.367 0 .693-.075.978-.224.286-.149.509-.356.671-.62.162-.264.243-.569.243-.914a1.637 1.637 0 0 0-.907-1.502 2.066 2.066 0 0 0-.985-.224c-.371 0-.699.074-.984.224a1.651 1.651 0 0 0-.671.607 1.668 1.668 0 0 0-.237.895c0 .345.081.65.243.914.162.264.386.471.671.62.286.149.612.224.978.224Zm13.823 5.247v-.69c0-.524.11-1.006.332-1.444a2.64 2.64 0 0 1 .978-1.062c.43-.268.954-.402 1.572-.402.627 0 1.153.132 1.579.396.431.264.754.618.972 1.061.221.439.332.923.332 1.451v.69c0 .525-.111 1.008-.332 1.451a2.592 2.592 0 0 1-.978 1.055c-.431.269-.955.403-1.573.403-.626 0-1.152-.134-1.578-.403a2.597 2.597 0 0 1-.972-1.055 3.19 3.19 0 0 1-.332-1.451Zm1.86-.69v.69c0 .303.072.589.217.857.149.268.418.403.805.403.388 0 .652-.132.793-.397.145-.264.217-.551.217-.863v-.69c0-.311-.068-.601-.204-.869-.137-.269-.405-.403-.806-.403-.383 0-.649.134-.799.403a1.76 1.76 0 0 0-.223.869Zm-8.578-6.801v-.69c0-.529.112-1.012.338-1.451a2.63 2.63 0 0 1 .978-1.061c.431-.265.951-.397 1.56-.397.631 0 1.159.132 1.585.397.426.264.75.617.972 1.061.221.439.332.922.332 1.451v.69c0 .528-.113 1.012-.339 1.451-.221.439-.547.79-.978 1.055-.426.26-.95.39-1.572.39-.622 0-1.149-.133-1.579-.397a2.66 2.66 0 0 1-.972-1.054 3.216 3.216 0 0 1-.325-1.445Zm1.872-.69v.69c0 .311.073.599.218.863.149.264.411.396.786.396.392 0 .658-.132.799-.396.145-.264.217-.552.217-.863v-.69c0-.311-.068-.601-.204-.87-.137-.268-.407-.402-.812-.402-.379 0-.641.136-.786.409a1.81 1.81 0 0 0-.218.863ZM250.606 123l9-13.091h1.675l-9 13.091h-1.675Z" fill="#10B981"></path><rect x="4.5" y="84.5" width="275" height="63" rx="11.5" stroke="#fff"></rect><rect x=".5" y="80.5" width="283" height="71" rx="15.5" stroke="#fff" stroke-opacity=".25"></rect><defs><clipPath id="svg-551541853_16370_a"><path fill="#fff" transform="translate(28 28)" d="M0 0h16v16H0z"></path></clipPath><clipPath id="svg-551541853_16370_b"><path fill="#fff" transform="translate(28 108)" d="M0 0h16v16H0z"></path></clipPath></defs></svg>