<svg width="114" height="27" viewBox="-1 -1 114 27" fill="none" xmlns="http://www.w3.org/2000/svg" id="svg1622562691_8392">
<path d="M10.8138 5.7852C10.7409 5.04995 10.428 4.47877 9.875 4.07166C9.32205 3.66454 8.57162 3.46098 7.6237 3.46098C6.9796 3.46098 6.43576 3.55212 5.99219 3.73442C5.54861 3.91063 5.20833 4.15673 4.97135 4.4727C4.74045 4.78867 4.625 5.14718 4.625 5.54822C4.61285 5.88242 4.68273 6.17409 4.83464 6.42322C4.99262 6.67235 5.20833 6.88806 5.48177 7.07035C5.75521 7.24657 6.07118 7.40152 6.42969 7.5352C6.78819 7.6628 7.17101 7.77218 7.57813 7.86332L9.25521 8.26436C10.0694 8.44666 10.8168 8.68971 11.4974 8.99353C12.178 9.29735 12.7674 9.67105 13.2656 10.1146C13.7639 10.5582 14.1497 11.0808 14.4232 11.6823C14.7027 12.2839 14.8455 12.9736 14.8516 13.7513C14.8455 14.8937 14.5538 15.8842 13.9766 16.7227C13.4054 17.5552 12.579 18.2023 11.4974 18.6641C10.4219 19.1198 9.12457 19.3477 7.60547 19.3477C6.09852 19.3477 4.78602 19.1168 3.66797 18.655C2.55599 18.1932 1.68707 17.5096 1.0612 16.6042C0.441406 15.6927 0.116319 14.5656 0.0859375 13.2227H3.90495C3.94748 13.8486 4.12674 14.3711 4.44271 14.7904C4.76476 15.2036 5.19314 15.5165 5.72786 15.7292C6.26866 15.9358 6.87934 16.0391 7.5599 16.0391C8.2283 16.0391 8.80859 15.9419 9.30078 15.7474C9.79905 15.553 10.1849 15.2826 10.4583 14.9362C10.7318 14.5899 10.8685 14.1919 10.8685 13.7422C10.8685 13.323 10.7439 12.9705 10.4948 12.6849C10.2517 12.3993 9.89323 12.1563 9.41927 11.9558C8.95139 11.7552 8.37717 11.573 7.69661 11.4089L5.66406 10.8985C4.09028 10.5157 2.84766 9.91714 1.9362 9.10291C1.02474 8.28867 0.572049 7.19188 0.578125 5.81254C0.572049 4.68233 0.87283 3.69492 1.48047 2.8503C2.09418 2.00568 2.93576 1.3464 4.00521 0.872437C5.07465 0.398478 6.28993 0.161499 7.65104 0.161499C9.03646 0.161499 10.2457 0.398478 11.2786 0.872437C12.3177 1.3464 13.1259 2.00568 13.7031 2.8503C14.2804 3.69492 14.5781 4.67322 14.5964 5.7852H10.8138Z" fill="#94A3B8"></path>
<path d="M23.8135 19.3568C22.3734 19.3568 21.1338 19.0651 20.0947 18.4818C19.0617 17.8924 18.2657 17.0599 17.7067 15.9844C17.1477 14.9028 16.8682 13.6237 16.8682 12.1472C16.8682 10.7071 17.1477 9.44318 17.7067 8.35551C18.2657 7.26784 19.0526 6.42018 20.0674 5.81254C21.0882 5.2049 22.2853 4.90108 23.6585 4.90108C24.5821 4.90108 25.4419 5.04995 26.238 5.3477C27.04 5.63936 27.7388 6.0799 28.3343 6.66931C28.9359 7.25872 29.4038 8.00004 29.738 8.89327C30.0722 9.78042 30.2393 10.8195 30.2393 12.0105V13.0769H18.4176V10.6706H26.5843C26.5843 10.1116 26.4628 9.61636 26.2197 9.18494C25.9767 8.75351 25.6394 8.41627 25.208 8.17322C24.7827 7.92409 24.2874 7.79952 23.7223 7.79952C23.1329 7.79952 22.6104 7.93624 22.1546 8.20968C21.705 8.47704 21.3525 8.83858 21.0973 9.29431C20.8421 9.74396 20.7115 10.2453 20.7054 10.7982V13.086C20.7054 13.7787 20.833 14.3772 21.0882 14.8816C21.3495 15.3859 21.7171 15.7748 22.1911 16.0482C22.665 16.3217 23.2271 16.4584 23.8773 16.4584C24.3087 16.4584 24.7037 16.3976 25.0622 16.2761C25.4207 16.1546 25.7275 15.9723 25.9827 15.7292C26.238 15.4862 26.4324 15.1884 26.5661 14.836L30.1572 15.073C29.9749 15.9358 29.6012 16.6893 29.0361 17.3334C28.4771 17.9714 27.754 18.4697 26.8669 18.8282C25.9858 19.1806 24.968 19.3568 23.8135 19.3568Z" fill="#94A3B8"></path>
<path d="M39.0804 24.625C37.8226 24.625 36.744 24.4519 35.8447 24.1055C34.9515 23.7652 34.2406 23.3004 33.7119 22.711C33.1833 22.1216 32.84 21.4592 32.682 20.724L36.2731 20.2409C36.3825 20.5204 36.5557 20.7817 36.7926 21.0248C37.0296 21.2678 37.3426 21.4623 37.7314 21.6081C38.1264 21.76 38.6064 21.836 39.1716 21.836C40.0162 21.836 40.7119 21.6294 41.2588 21.2162C41.8117 20.8091 42.0882 20.1255 42.0882 19.1654V16.6042H41.9242C41.754 16.9931 41.4988 17.3607 41.1585 17.7071C40.8183 18.0534 40.3808 18.336 39.846 18.5547C39.3113 18.7735 38.6733 18.8829 37.932 18.8829C36.8808 18.8829 35.9237 18.6398 35.0609 18.1537C34.2041 17.6615 33.5205 16.9111 33.0101 15.9024C32.5058 14.8876 32.2536 13.6055 32.2536 12.056C32.2536 10.4701 32.5118 9.14544 33.0283 8.08207C33.5448 7.0187 34.2314 6.2227 35.0882 5.69405C35.9511 5.16541 36.8959 4.90108 37.9229 4.90108C38.7067 4.90108 39.363 5.03476 39.8916 5.30212C40.4202 5.56341 40.8456 5.89153 41.1676 6.2865C41.4958 6.67539 41.7479 7.0582 41.9242 7.43494H42.07V5.08337H45.9255V19.2201C45.9255 20.4111 45.6338 21.4076 45.0505 22.2097C44.4671 23.0118 43.659 23.6133 42.626 24.0144C41.5991 24.4215 40.4172 24.625 39.0804 24.625ZM39.1624 15.9662C39.7883 15.9662 40.317 15.8112 40.7484 15.5013C41.1859 15.1854 41.5201 14.7357 41.751 14.1524C41.988 13.563 42.1064 12.8581 42.1064 12.0378C42.1064 11.2175 41.991 10.5066 41.7601 9.90499C41.5292 9.29735 41.195 8.82643 40.7575 8.49223C40.32 8.15803 39.7883 7.99093 39.1624 7.99093C38.5244 7.99093 37.9867 8.1641 37.5492 8.51046C37.1117 8.85074 36.7805 9.32469 36.5557 9.93233C36.3308 10.54 36.2184 11.2418 36.2184 12.0378C36.2184 12.846 36.3308 13.5447 36.5557 14.1342C36.7866 14.7175 37.1177 15.1702 37.5492 15.4922C37.9867 15.8082 38.5244 15.9662 39.1624 15.9662Z" fill="#94A3B8"></path>
<path d="M49.0153 19.0834V5.08337H52.7158V7.55343H52.8799C53.1716 6.73311 53.6577 6.08598 54.3382 5.61202C55.0188 5.13806 55.833 4.90108 56.7809 4.90108C57.741 4.90108 58.5583 5.1411 59.2327 5.62113C59.9072 6.09509 60.3569 6.73919 60.5817 7.55343H60.7275C61.0131 6.75134 61.5296 6.11028 62.277 5.63025C63.0305 5.14414 63.9207 4.90108 64.9476 4.90108C66.254 4.90108 67.3143 5.31732 68.1286 6.14978C68.9489 6.97617 69.359 8.14891 69.359 9.66801V19.0834H65.4853V10.4336C65.4853 9.65586 65.2788 9.07252 64.8656 8.68364C64.4524 8.29475 63.9359 8.1003 63.3161 8.1003C62.6112 8.1003 62.0613 8.32513 61.6663 8.77478C61.2714 9.21836 61.0739 9.80473 61.0739 10.5339V19.0834H57.3096V10.3516C57.3096 9.66497 57.1121 9.1181 56.7171 8.71098C56.3282 8.30386 55.8148 8.1003 55.1768 8.1003C54.7453 8.1003 54.3564 8.20968 54.0101 8.42843C53.6698 8.6411 53.3994 8.94188 53.1989 9.33077C52.9984 9.71358 52.8981 10.1632 52.8981 10.6797V19.0834H49.0153Z" fill="#94A3B8"></path>
<path d="M78.8063 19.3568C77.3662 19.3568 76.1266 19.0651 75.0876 18.4818C74.0546 17.8924 73.2586 17.0599 72.6995 15.9844C72.1405 14.9028 71.861 13.6237 71.861 12.1472C71.861 10.7071 72.1405 9.44318 72.6995 8.35551C73.2586 7.26784 74.0455 6.42018 75.0602 5.81254C76.0811 5.2049 77.2781 4.90108 78.6514 4.90108C79.575 4.90108 80.4348 5.04995 81.2308 5.3477C82.0329 5.63936 82.7317 6.0799 83.3272 6.66931C83.9287 7.25872 84.3966 8.00004 84.7308 8.89327C85.065 9.78042 85.2321 10.8195 85.2321 12.0105V13.0769H73.4105V10.6706H81.5771C81.5771 10.1116 81.4556 9.61636 81.2126 9.18494C80.9695 8.75351 80.6323 8.41627 80.2008 8.17322C79.7755 7.92409 79.2803 7.79952 78.7152 7.79952C78.1258 7.79952 77.6032 7.93624 77.1475 8.20968C76.6978 8.47704 76.3454 8.83858 76.0902 9.29431C75.835 9.74396 75.7043 10.2453 75.6982 10.7982V13.086C75.6982 13.7787 75.8258 14.3772 76.0811 14.8816C76.3423 15.3859 76.71 15.7748 77.1839 16.0482C77.6579 16.3217 78.2199 16.4584 78.8701 16.4584C79.3015 16.4584 79.6965 16.3976 80.055 16.2761C80.4135 16.1546 80.7204 15.9723 80.9756 15.7292C81.2308 15.4862 81.4252 15.1884 81.5589 14.836L85.1501 15.073C84.9678 15.9358 84.5941 16.6893 84.029 17.3334C83.4699 17.9714 82.7469 18.4697 81.8597 18.8282C80.9786 19.1806 79.9608 19.3568 78.8063 19.3568Z" fill="#94A3B8"></path>
<path d="M91.6488 10.9896V19.0834H87.7659V5.08337H91.4665V7.55343H91.6305C91.9404 6.73919 92.46 6.09509 93.1891 5.62113C93.9183 5.1411 94.8024 4.90108 95.8415 4.90108C96.8137 4.90108 97.6613 5.11376 98.3844 5.5391C99.1075 5.96445 99.6696 6.57209 100.071 7.36202C100.472 8.14587 100.672 9.08164 100.672 10.1693V19.0834H96.7894V10.862C96.7955 10.0052 96.5767 9.33685 96.1331 8.85681C95.6896 8.3707 95.0789 8.12765 94.3011 8.12765C93.7785 8.12765 93.3167 8.24006 92.9157 8.46488C92.5207 8.68971 92.2108 9.01784 91.986 9.44926C91.7673 9.87461 91.6548 10.3881 91.6488 10.9896Z" fill="#94A3B8"></path>
<path d="M111.179 5.08337V8.00004H102.748V5.08337H111.179ZM104.662 1.72921H108.545V14.7813C108.545 15.1398 108.6 15.4193 108.709 15.6198C108.818 15.8143 108.97 15.951 109.165 16.03C109.365 16.109 109.596 16.1485 109.857 16.1485C110.04 16.1485 110.222 16.1333 110.404 16.1029C110.587 16.0664 110.726 16.0391 110.824 16.0209L111.434 18.9102C111.24 18.971 110.966 19.0408 110.614 19.1198C110.261 19.2049 109.833 19.2566 109.329 19.2748C108.393 19.3112 107.573 19.1867 106.868 18.9011C106.169 18.6155 105.625 18.1719 105.236 17.5704C104.847 16.9688 104.656 16.2092 104.662 15.2917V1.72921Z" fill="#94A3B8"></path>
</svg>