<svg width="41" height="42" viewBox="0 0 41 42" fill="none" xmlns="http://www.w3.org/2000/svg" id="svg-1182628948_1632">
<path d="M13.0156 2.36846C15.4623 1.35506 18.0848 0.833374 20.7331 0.833374V10.9167C19.4089 10.9167 18.0977 11.1775 16.8743 11.6843C15.651 12.191 14.5394 12.9337 13.6031 13.87C12.6668 14.8063 11.924 15.9179 11.4173 17.1413C10.9105 18.3647 10.6497 19.6758 10.6497 21H0.566406C0.566406 18.3518 1.08809 15.7293 2.10149 13.2825C3.11501 10.8358 4.60043 8.61275 6.47305 6.74002C8.34579 4.8674 10.5688 3.38198 13.0156 2.36846Z" fill="#94A3B8"></path>
<path d="M0.566406 21C0.566406 23.6483 1.08809 26.2708 2.10149 28.7175C3.11501 31.1642 4.60043 33.3873 6.47305 35.26C8.34578 37.1326 10.5688 38.6181 13.0156 39.6316C15.4623 40.645 18.0848 41.1667 20.7331 41.1667C23.3814 41.1667 26.0038 40.645 28.4506 39.6316C30.8973 38.6181 33.1204 37.1326 34.9931 35.26C36.8657 33.3873 38.3511 31.1642 39.3647 28.7175C40.3781 26.2708 40.8997 23.6483 40.8997 21H30.8164C30.8164 22.3242 30.5556 23.6354 30.0488 24.8587C29.5421 26.0821 28.7994 27.1937 27.8631 28.13C26.9268 29.0663 25.8152 29.809 24.5918 30.3157C23.3685 30.8226 22.0573 31.0833 20.7331 31.0833C19.4089 31.0833 18.0977 30.8226 16.8743 30.3157C15.651 29.809 14.5394 29.0663 13.6031 28.13C12.6668 27.1937 11.924 26.0821 11.4173 24.8587C10.9105 23.6354 10.6497 22.3242 10.6497 21H0.566406Z" fill="#94A3B8"></path>
<path d="M20.7331 14.5834C17.1892 14.5834 14.3164 17.4562 14.3164 21H27.1497C27.1497 17.4562 24.2769 14.5834 20.7331 14.5834Z" fill="#94A3B8"></path>
<path d="M20.7331 27.4166C17.1892 27.4166 14.3164 24.5438 14.3164 21H27.1497C27.1497 24.5438 24.2769 27.4166 20.7331 27.4166Z" fill="#94A3B8"></path>
</svg>