<svg width="119" height="28" viewBox="-1 -1 119 28" fill="none" xmlns="http://www.w3.org/2000/svg" id="svg92637675_7012">
<path d="M7.6465 20.4234C6.2605 20.4234 4.91728 20.2266 3.61683 19.8331C2.3335 19.4395 1.31539 18.9176 0.5625 18.2674L1.7175 15.6751C2.45328 16.2568 3.35161 16.7359 4.4125 17.1124C5.4905 17.4717 6.5685 17.6514 7.6465 17.6514C8.98116 17.6514 9.97361 17.4375 10.6238 17.0097C11.2912 16.5819 11.6248 16.0173 11.6248 15.3157C11.6248 14.8024 11.4366 14.3832 11.0602 14.0581C10.7008 13.7158 10.2388 13.4506 9.67416 13.2624C9.1095 13.0742 8.3395 12.8603 7.36416 12.6207C5.99528 12.2956 4.88305 11.9705 4.0275 11.6454C3.18905 11.3203 2.46183 10.8155 1.84583 10.1311C1.24694 9.4295 0.9475 8.48838 0.9475 7.30772C0.9475 6.31527 1.21272 5.41694 1.74317 4.61272C2.29072 3.79138 3.1035 3.14116 4.1815 2.66205C5.27661 2.18294 6.61128 1.94338 8.1855 1.94338C9.28061 1.94338 10.3586 2.08027 11.4195 2.35405C12.4804 2.62783 13.3958 3.02138 14.1658 3.53472L13.1135 6.12705C12.3264 5.66505 11.5051 5.31427 10.6495 5.07472C9.79394 4.83516 8.96405 4.71538 8.15983 4.71538C6.84227 4.71538 5.85839 4.93783 5.20816 5.38272C4.57505 5.82761 4.2585 6.41794 4.2585 7.15372C4.2585 7.66705 4.43816 8.08627 4.7975 8.41138C5.17394 8.7365 5.6445 8.99316 6.20916 9.18138C6.77383 9.36961 7.54383 9.5835 8.51916 9.82305C9.85383 10.1311 10.9489 10.4562 11.8045 10.7984C12.66 11.1235 13.3873 11.6283 13.9862 12.3127C14.6022 12.9972 14.9102 13.9212 14.9102 15.0847C14.9102 16.0772 14.6364 16.9755 14.0888 17.7797C13.5584 18.5839 12.7456 19.2256 11.6505 19.7047C10.5554 20.1838 9.22072 20.4234 7.6465 20.4234Z" fill="#94A3B8"></path>
<path d="M17.9108 6.46072H21.1191V20.1667H17.9108V6.46072ZM19.5278 4.20205C18.946 4.20205 18.4583 4.02238 18.0648 3.66305C17.6712 3.28661 17.4744 2.82461 17.4744 2.27705C17.4744 1.7295 17.6712 1.27605 18.0648 0.916716C18.4583 0.540273 18.946 0.352051 19.5278 0.352051C20.1095 0.352051 20.5972 0.531717 20.9908 0.89105C21.3843 1.23327 21.5811 1.66961 21.5811 2.20005C21.5811 2.76472 21.3843 3.24383 20.9908 3.63738C20.6143 4.01383 20.1266 4.20205 19.5278 4.20205Z" fill="#94A3B8"></path>
<path d="M29.565 20.3464C28.4528 20.3464 27.3662 20.2009 26.3054 19.9101C25.2445 19.6192 24.3975 19.2513 23.7644 18.8064L24.9964 16.3681C25.6124 16.7787 26.3481 17.1124 27.2037 17.3691C28.0764 17.6086 28.9319 17.7284 29.7704 17.7284C31.6868 17.7284 32.645 17.2236 32.645 16.2141C32.645 15.7349 32.3969 15.4013 31.9007 15.2131C31.4216 15.0248 30.643 14.8452 29.565 14.6741C28.4357 14.5029 27.5117 14.3062 26.793 14.0837C26.0915 13.8613 25.4755 13.4763 24.945 12.9287C24.4317 12.3641 24.175 11.5855 24.175 10.5931C24.175 9.29261 24.714 8.25738 25.792 7.48738C26.8871 6.70027 28.3587 6.30672 30.2067 6.30672C31.1478 6.30672 32.0889 6.41794 33.03 6.64038C33.9711 6.84572 34.7411 7.12805 35.34 7.48738L34.108 9.92572C32.9445 9.24127 31.6355 8.89905 30.181 8.89905C29.2399 8.89905 28.5212 9.0445 28.025 9.33538C27.5459 9.60916 27.3064 9.97705 27.3064 10.4391C27.3064 10.9524 27.563 11.3203 28.0764 11.5427C28.6068 11.7481 29.4196 11.9448 30.5147 12.1331C31.6098 12.3042 32.5081 12.5009 33.2097 12.7234C33.9112 12.9458 34.5101 13.3223 35.0064 13.8527C35.5197 14.3832 35.7764 15.1361 35.7764 16.1114C35.7764 17.3947 35.2202 18.4214 34.108 19.1914C32.9958 19.9614 31.4815 20.3464 29.565 20.3464Z" fill="#94A3B8"></path>
<path d="M51.122 6.46072L44.7053 21.2704C44.1065 22.7591 43.3792 23.8028 42.5237 24.4017C41.6681 25.0177 40.6329 25.3257 39.418 25.3257C38.7336 25.3257 38.0577 25.2145 37.3903 24.9921C36.723 24.7696 36.1755 24.4616 35.7477 24.0681L37.031 21.7067C37.339 21.9976 37.6983 22.2286 38.109 22.3997C38.5368 22.5708 38.9646 22.6564 39.3923 22.6564C39.957 22.6564 40.419 22.5109 40.7783 22.2201C41.1548 21.9292 41.497 21.4415 41.805 20.7571L42.036 20.2181L36.0557 6.46072H39.3923L43.7043 16.5991L48.042 6.46072H51.122Z" fill="#94A3B8"></path>
<path d="M60.7245 6.30672C62.0592 6.30672 63.2484 6.59761 64.2922 7.17938C65.3531 7.76116 66.183 8.5825 66.7819 9.64339C67.3808 10.7043 67.6802 11.9277 67.6802 13.3137C67.6802 14.6997 67.3808 15.9317 66.7819 17.0097C66.183 18.0706 65.3531 18.8919 64.2922 19.4737C63.2484 20.0555 62.0592 20.3464 60.7245 20.3464C58.8765 20.3464 57.4135 19.7304 56.3355 18.4984V25.1461H53.1272V6.46072H56.1815V8.25738C56.712 7.60716 57.3622 7.1195 58.1322 6.79438C58.9193 6.46927 59.7834 6.30672 60.7245 6.30672ZM60.3652 17.6001C61.5459 17.6001 62.5126 17.2065 63.2655 16.4194C64.0355 15.6323 64.4205 14.5971 64.4205 13.3137C64.4205 12.0304 64.0355 10.9952 63.2655 10.2081C62.5126 9.42094 61.5459 9.02739 60.3652 9.02739C59.5952 9.02739 58.9022 9.20705 58.2862 9.56639C57.6702 9.90861 57.1825 10.4048 56.8232 11.0551C56.4639 11.7053 56.2842 12.4582 56.2842 13.3137C56.2842 14.1693 56.4639 14.9222 56.8232 15.5724C57.1825 16.2226 57.6702 16.7274 58.2862 17.0867C58.9022 17.4289 59.5952 17.6001 60.3652 17.6001Z" fill="#94A3B8"></path>
<path d="M78.4999 6.30672C80.2281 6.30672 81.6141 6.8115 82.6579 7.82105C83.7017 8.83061 84.2236 10.3278 84.2236 12.3127V20.1667H81.0152V12.7234C81.0152 11.5256 80.7329 10.6273 80.1682 10.0284C79.6036 9.41239 78.7993 9.10438 77.7556 9.10438C76.5749 9.10438 75.6423 9.46372 74.9579 10.1824C74.2735 10.8839 73.9312 11.9021 73.9312 13.2367V20.1667H70.7229V1.12205H73.9312V8.05205C74.4617 7.48739 75.1119 7.05961 75.8819 6.76872C76.669 6.46072 77.5417 6.30672 78.4999 6.30672Z" fill="#94A3B8"></path>
<path d="M101.563 6.46072V20.1667H98.5089V18.4214C97.9955 19.0374 97.3539 19.5165 96.5839 19.8587C95.8139 20.1838 94.984 20.3464 94.0942 20.3464C92.2633 20.3464 90.8174 19.8416 89.7565 18.8321C88.7128 17.8054 88.1909 16.2911 88.1909 14.2891V6.46072H91.3992V13.8527C91.3992 15.0847 91.673 16.0087 92.2205 16.6247C92.7852 17.2236 93.5809 17.5231 94.6075 17.5231C95.754 17.5231 96.6609 17.1723 97.3282 16.4707C98.0126 15.7521 98.3549 14.7254 98.3549 13.3907V6.46072H101.563Z" fill="#94A3B8"></path>
<path d="M109.999 20.3464C108.887 20.3464 107.8 20.2009 106.739 19.9101C105.678 19.6192 104.831 19.2513 104.198 18.8064L105.43 16.3681C106.046 16.7787 106.782 17.1124 107.638 17.3691C108.51 17.6086 109.366 17.7284 110.204 17.7284C112.121 17.7284 113.079 17.2236 113.079 16.2141C113.079 15.7349 112.831 15.4013 112.335 15.2131C111.855 15.0248 111.077 14.8452 109.999 14.6741C108.87 14.5029 107.946 14.3062 107.227 14.0837C106.525 13.8613 105.909 13.4763 105.379 12.9287C104.866 12.3641 104.609 11.5855 104.609 10.5931C104.609 9.29261 105.148 8.25738 106.226 7.48738C107.321 6.70027 108.793 6.30672 110.641 6.30672C111.582 6.30672 112.523 6.41794 113.464 6.64038C114.405 6.84572 115.175 7.12805 115.774 7.48738L114.542 9.92572C113.378 9.24127 112.069 8.89905 110.615 8.89905C109.674 8.89905 108.955 9.0445 108.459 9.33538C107.98 9.60916 107.74 9.97705 107.74 10.4391C107.74 10.9524 107.997 11.3203 108.51 11.5427C109.041 11.7481 109.853 11.9448 110.949 12.1331C112.044 12.3042 112.942 12.5009 113.644 12.7234C114.345 12.9458 114.944 13.3223 115.44 13.8527C115.954 14.3832 116.21 15.1361 116.21 16.1114C116.21 17.3947 115.654 18.4214 114.542 19.1914C113.43 19.9614 111.915 20.3464 109.999 20.3464Z" fill="#94A3B8"></path>
</svg>