<svg width="112" height="32" viewBox="0 0 112 32" fill="none" xmlns="http://www.w3.org/2000/svg" id="svg-680115154_3771">
<path d="M12.3172 22.4844V13.8403H9.44655V22.4844H12.3175H12.3172ZM10.8825 12.6603C11.8833 12.6603 12.5064 11.9965 12.5064 11.167C12.4876 10.3186 11.8833 9.67334 10.9015 9.67334C9.91901 9.67334 9.27734 10.3186 9.27734 11.1669C9.27734 11.9964 9.90021 12.6602 10.8636 12.6602H10.8822L10.8825 12.6603ZM13.9061 22.4844H16.7765V17.6577C16.7765 17.3997 16.7952 17.141 16.8711 16.9567C17.0785 16.4403 17.5508 15.9058 18.344 15.9058C19.3824 15.9058 19.7981 16.6984 19.7981 17.8605V22.4844H22.6684V17.5281C22.6684 14.8731 21.2525 13.6376 19.3639 13.6376C17.8155 13.6376 17.1354 14.5038 16.7576 15.0938H16.7767V13.8406H13.9062C13.9437 14.6515 13.906 22.4847 13.906 22.4847L13.9061 22.4844Z" fill="white"></path>
<path fill-rule="evenodd" clip-rule="evenodd" d="M63.2856 9.98119C64.072 10.1936 64.69 10.8132 64.8989 11.5986C65.2791 13.0241 65.2791 16.0001 65.2791 16.0001C65.2791 16.0001 65.2791 18.9761 64.8989 20.4016C64.6871 21.1899 64.0691 21.8096 63.2856 22.019C61.8638 22.4001 56.1591 22.4001 56.1591 22.4001C56.1591 22.4001 50.4572 22.4001 49.0325 22.019C48.2462 21.8066 47.6281 21.187 47.4192 20.4016C47.0391 18.9761 47.0391 16.0001 47.0391 16.0001C47.0391 16.0001 47.0391 13.0241 47.4192 11.5986C47.631 10.8103 48.2491 10.1906 49.0325 9.98119C50.4572 9.6001 56.1591 9.6001 56.1591 9.6001C56.1591 9.6001 61.8638 9.6001 63.2856 9.98119ZM58.3278 15.5674C58.6605 15.76 58.6605 16.2402 58.3278 16.4328L55.0873 18.3089C54.754 18.5018 54.3368 18.2613 54.3368 17.8762V14.124C54.3368 13.7389 54.754 13.4983 55.0873 13.6913L58.3278 15.5674Z" fill="white"></path>
<path d="M103.941 10.9339C103.413 11.1614 102.857 11.3199 102.288 11.4054C102.554 11.3598 102.946 10.8806 103.101 10.6867C103.338 10.3941 103.518 10.0602 103.633 9.70179C103.633 9.67517 103.66 9.63714 103.633 9.61813C103.62 9.61081 103.605 9.60697 103.59 9.60697C103.574 9.60697 103.559 9.61081 103.546 9.61813C102.928 9.95292 102.271 10.2085 101.589 10.3787C101.566 10.3859 101.54 10.3866 101.516 10.3805C101.492 10.3745 101.47 10.362 101.453 10.3444C101.4 10.2812 101.342 10.2215 101.282 10.1657C101.004 9.91643 100.688 9.7124 100.347 9.56109C99.8863 9.37194 99.3888 9.29002 98.8919 9.32152C98.4097 9.352 97.939 9.48144 97.5089 9.70179C97.0854 9.9341 96.7132 10.2497 96.4147 10.6296C96.1007 11.0207 95.874 11.4745 95.7498 11.9606C95.6475 12.4229 95.6358 12.9008 95.7156 13.3676C95.7156 13.4474 95.7156 13.4588 95.6473 13.4474C92.9384 13.0481 90.7158 12.0861 88.8997 10.0212C88.8199 9.92995 88.7781 9.92995 88.7135 10.0212C87.9233 11.2229 88.307 13.1242 89.2948 14.0635C89.4278 14.1889 89.5646 14.3106 89.709 14.4247C89.256 14.3925 88.8142 14.2697 88.4096 14.0635C88.3336 14.014 88.2918 14.0406 88.288 14.1319C88.2773 14.2584 88.2773 14.3856 88.288 14.5122C88.3673 15.1185 88.6061 15.693 88.9799 16.1767C89.3537 16.6604 89.8492 17.0361 90.4156 17.2653C90.5537 17.3245 90.6976 17.3691 90.8449 17.3984C90.4257 17.481 89.9956 17.4939 89.5722 17.4364C89.481 17.4174 89.4468 17.4668 89.481 17.5543C90.0395 19.0754 91.2515 19.5393 92.1405 19.7979C92.2621 19.8169 92.3837 19.8169 92.5204 19.8473C92.5204 19.8473 92.5204 19.8473 92.4976 19.8701C92.2355 20.3493 91.1755 20.6725 90.6892 20.8398C89.8015 21.1589 88.8551 21.2809 87.9157 21.1973C87.7675 21.1744 87.7333 21.1783 87.6953 21.1973C87.6573 21.2163 87.6953 21.2581 87.7371 21.2961C87.9271 21.4216 88.1171 21.5319 88.3146 21.6384C88.9028 21.9595 89.5246 22.2145 90.1687 22.3989C93.5045 23.3192 97.2582 22.6423 99.7619 20.1515C101.73 18.197 102.421 15.5009 102.421 12.801C102.421 12.6983 102.547 12.6375 102.619 12.5842C103.117 12.1959 103.556 11.7374 103.922 11.2229C103.986 11.1462 104.018 11.0485 104.013 10.9491C104.013 10.892 104.013 10.9034 103.941 10.9339Z" fill="white"></path>
</svg>