<svg width="22" height="22" viewBox="-1 -1 22 22" fill="none" xmlns="http://www.w3.org/2000/svg" id="svg-654946382_1365">
<path d="M6 6H6.01M2.56274 0.937257L0.937258 2.56274C0.591355 2.90864 0.418404 3.0816 0.29472 3.28343C0.185063 3.46237 0.104254 3.65746 0.0552605 3.86154C3.31551e-07 4.09171 3.07053e-07 4.3363 2.62069e-07 4.82548L0 7.67452C-4.49026e-08 8.1637 -6.70552e-08 8.40829 0.0552601 8.63846C0.104254 8.84254 0.185062 9.03762 0.29472 9.21657C0.418403 9.4184 0.591354 9.59135 0.937257 9.93726L8.60588 17.6059C9.79393 18.7939 10.388 19.388 11.0729 19.6105C11.6755 19.8063 12.3245 19.8063 12.927 19.6105C13.612 19.388 14.2061 18.7939 15.3941 17.6059L17.6059 15.3941C18.7939 14.2061 19.388 13.612 19.6105 12.927C19.8063 12.3245 19.8063 11.6755 19.6105 11.0729C19.388 10.388 18.7939 9.79394 17.6059 8.60588L9.93726 0.937259C9.59135 0.591356 9.4184 0.418404 9.21657 0.294721C9.03762 0.185063 8.84253 0.104255 8.63846 0.0552611C8.40829 8.79169e-07 8.1637 8.18943e-07 7.67452 6.98987e-07L4.82548 3.52884e-10C4.3363 -1.19603e-07 4.09171 -1.78814e-07 3.86154 0.05526C3.65746 0.104253 3.46237 0.185062 3.28343 0.294719C3.0816 0.418403 2.90865 0.591355 2.56274 0.937257ZM6.5 6C6.5 6.27614 6.27614 6.5 6 6.5C5.72386 6.5 5.5 6.27614 5.5 6C5.5 5.72386 5.72386 5.5 6 5.5C6.27614 5.5 6.5 5.72386 6.5 6Z" stroke="#266DF0" stroke-width="2" stroke-linecap="round" stroke-linejoin="round"></path>
</svg>