<svg width="16" height="16" viewBox="0 0 16 16" fill="none" xmlns="http://www.w3.org/2000/svg" id="svg1739379036_1091">
<path d="M14.6654 3.99218C14.1661 4.21337 13.6365 4.35855 13.0942 4.42291C13.6591 4.08437 14.0928 3.54827 14.297 2.90952C13.76 3.22816 13.1726 3.45266 12.5599 3.57333C12.0609 3.04171 11.3501 2.70947 10.5632 2.70947C9.0525 2.70947 7.82766 3.93426 7.82766 5.44489C7.82766 5.65932 7.85187 5.86807 7.89849 6.06833C5.62505 5.95421 3.60943 4.8652 2.26021 3.2102C2.02479 3.61421 1.8899 4.08416 1.8899 4.58541C1.8899 5.53447 2.37286 6.37171 3.10682 6.86229C2.67242 6.84868 2.24758 6.73135 1.86776 6.5201C1.8676 6.53156 1.8676 6.54301 1.8676 6.55452C1.8676 7.87989 2.81052 8.98551 4.06187 9.23682C3.65906 9.34637 3.23653 9.3624 2.82656 9.28369C3.17464 10.3705 4.1849 11.1613 5.38188 11.1834C4.44568 11.9171 3.26615 12.3544 1.98458 12.3544C1.76375 12.3544 1.54604 12.3415 1.33203 12.3162C2.5426 13.0923 3.98047 13.5452 5.52526 13.5452C10.5569 13.5452 13.3083 9.37692 13.3083 5.76213C13.3083 5.64348 13.3057 5.52551 13.3004 5.40822C13.8359 5.02108 14.2981 4.54156 14.6654 3.99218Z" fill="#9CA3AF"></path>
</svg>